M48
; DRILL file {KiCad (5.1.6)-1} date 10/19/20 07:42:56
; FORMAT={-:-/ absolute / inch / decimal}
; #@! TF.CreationDate,2020-10-19T07:42:56-05:00
; #@! TF.GenerationSoftware,Kicad,Pcbnew,(5.1.6)-1
; #@! TF.FileFunction,Plated,1,2,PTH
FMAT,2
INCH
T1C0.0100
T2C0.0150
T3C0.0394
%
G90
G05
T1
X4.51Y-2.0595
X4.51Y-2.14
X4.54Y-2.05
X4.5537Y-2.3108
X4.5907Y-2.2898
X4.6Y-1.995
X4.605Y-1.91
X4.605Y-1.94
X4.615Y-2.28
X4.62Y-2.31
X4.635Y-2.435
X4.645Y-2.61
X4.655Y-2.66
X4.6565Y-2.2914
X4.6962Y-2.3662
X4.72Y-1.93
X4.7201Y-2.3
X4.7824Y-2.5326
X4.8394Y-2.3658
X4.84Y-2.275
X4.84Y-2.325
X4.84Y-2.41
X4.845Y-2.47
T2
X4.6667Y-2.1484
X4.81Y-2.055
T3
X4.435Y-1.925
X4.435Y-2.025
X4.435Y-2.125
X4.435Y-2.225
X4.435Y-2.325
X4.435Y-2.425
X4.435Y-2.525
X4.435Y-2.625
X4.935Y-1.925
X4.935Y-2.025
X4.935Y-2.125
X4.935Y-2.225
X4.935Y-2.325
X4.935Y-2.425
X4.935Y-2.525
X4.935Y-2.625
T0
M30
