%TF.GenerationSoftware,KiCad,Pcbnew,(5.1.6)-1*%
%TF.CreationDate,2020-10-05T22:36:01-05:00*%
%TF.ProjectId,ice30lp384_dev_board,69636533-306c-4703-9338-345f6465765f,rev?*%
%TF.SameCoordinates,Original*%
%TF.FileFunction,Copper,L2,Bot*%
%TF.FilePolarity,Positive*%
%FSLAX46Y46*%
G04 Gerber Fmt 4.6, Leading zero omitted, Abs format (unit mm)*
G04 Created by KiCad (PCBNEW (5.1.6)-1) date 2020-10-05 22:36:01*
%MOMM*%
%LPD*%
G01*
G04 APERTURE LIST*
%TA.AperFunction,ComponentPad*%
%ADD10O,1.700000X1.700000*%
%TD*%
%TA.AperFunction,ComponentPad*%
%ADD11R,1.700000X1.700000*%
%TD*%
%TA.AperFunction,ViaPad*%
%ADD12C,0.508000*%
%TD*%
%TA.AperFunction,ViaPad*%
%ADD13C,0.635000*%
%TD*%
%TA.AperFunction,Conductor*%
%ADD14C,0.254000*%
%TD*%
%TA.AperFunction,Conductor*%
%ADD15C,0.152400*%
%TD*%
%TA.AperFunction,Conductor*%
%ADD16C,0.203200*%
%TD*%
G04 APERTURE END LIST*
D10*
%TO.P,J2,8*%
%TO.N,CDONE*%
X125349000Y-66675000D03*
%TO.P,J2,7*%
%TO.N,CRESET*%
X125349000Y-64135000D03*
%TO.P,J2,6*%
%TO.N,CS0*%
X125349000Y-61595000D03*
%TO.P,J2,5*%
%TO.N,MOSI*%
X125349000Y-59055000D03*
%TO.P,J2,4*%
%TO.N,MISO*%
X125349000Y-56515000D03*
%TO.P,J2,3*%
%TO.N,SCK*%
X125349000Y-53975000D03*
%TO.P,J2,2*%
%TO.N,+3V3*%
X125349000Y-51435000D03*
D11*
%TO.P,J2,1*%
%TO.N,GND*%
X125349000Y-48895000D03*
%TD*%
D10*
%TO.P,J1,8*%
%TO.N,Net-(J1-Pad8)*%
X112649000Y-66675000D03*
%TO.P,J1,7*%
%TO.N,Net-(J1-Pad7)*%
X112649000Y-64135000D03*
%TO.P,J1,6*%
%TO.N,Net-(J1-Pad6)*%
X112649000Y-61595000D03*
%TO.P,J1,5*%
%TO.N,Net-(J1-Pad5)*%
X112649000Y-59055000D03*
%TO.P,J1,4*%
%TO.N,Net-(J1-Pad4)*%
X112649000Y-56515000D03*
%TO.P,J1,3*%
%TO.N,Net-(J1-Pad3)*%
X112649000Y-53975000D03*
%TO.P,J1,2*%
%TO.N,+3V3*%
X112649000Y-51435000D03*
D11*
%TO.P,J1,1*%
%TO.N,GND*%
X112649000Y-48895000D03*
%TD*%
D12*
%TO.N,GND*%
X116840000Y-50673000D03*
X116967000Y-48514000D03*
X121031000Y-48895000D03*
X118237000Y-67564000D03*
X117729000Y-61849000D03*
D13*
X118534000Y-54570000D03*
X122174000Y-52197000D03*
D12*
%TO.N,+3V3*%
X117983000Y-66294000D03*
X121474000Y-64327000D03*
X116604500Y-58160124D03*
X115663765Y-58694436D03*
X114554000Y-52312000D03*
X114554000Y-54356000D03*
%TO.N,+2V5*%
X119888000Y-49022000D03*
X116967000Y-49276000D03*
%TO.N,Net-(J1-Pad8)*%
X115316000Y-52070000D03*
%TO.N,CDONE*%
X123063000Y-62738000D03*
X117348008Y-58674000D03*
%TO.N,CRESET*%
X122936000Y-61214000D03*
X117221000Y-57912000D03*
%TO.N,CS0*%
X122920747Y-60091326D03*
X119284000Y-60102000D03*
%TO.N,MOSI*%
X122936000Y-59054992D03*
X118275990Y-58202495D03*
%TO.N,SCK*%
X122936000Y-57785000D03*
X119889988Y-58420000D03*
%TD*%
D14*
%TO.N,GND*%
X112649000Y-48895000D02*
X114681000Y-48895000D01*
X125349000Y-48895000D02*
X123063000Y-48895000D01*
D15*
%TO.N,+3V3*%
X119507000Y-66294000D02*
X121474000Y-64327000D01*
X117983000Y-66294000D02*
X119507000Y-66294000D01*
D16*
X116604500Y-58160124D02*
X116198077Y-58160124D01*
X116198077Y-58160124D02*
X115663765Y-58694436D01*
X114554000Y-52312000D02*
X114554000Y-54356000D01*
D14*
%TO.N,+2V5*%
X119888000Y-49022000D02*
X119634000Y-49276000D01*
X119634000Y-49276000D02*
X116967000Y-49276000D01*
D16*
%TO.N,Net-(J1-Pad8)*%
X112649000Y-66675000D02*
X114046000Y-65278000D01*
X114046000Y-65278000D02*
X114046000Y-55880000D01*
X114046000Y-55880000D02*
X115316000Y-54610000D01*
X115316000Y-54610000D02*
X115316000Y-52070000D01*
D15*
%TO.N,CDONE*%
X125349000Y-66675000D02*
X123063000Y-64389000D01*
X123063000Y-64389000D02*
X123063000Y-62738000D01*
X117348008Y-60404242D02*
X117348008Y-58674000D01*
X119681766Y-62738000D02*
X117348008Y-60404242D01*
X123063000Y-62738000D02*
X119681766Y-62738000D01*
%TO.N,CRESET*%
X125349000Y-64135000D02*
X122936000Y-61722000D01*
X122936000Y-61722000D02*
X122936000Y-61214000D01*
X119681750Y-61214000D02*
X122936000Y-61214000D01*
X118801399Y-60333649D02*
X119681750Y-61214000D01*
X118801399Y-59413141D02*
X118801399Y-60333649D01*
X117300258Y-57912000D02*
X118801399Y-59413141D01*
X117221000Y-57912000D02*
X117300258Y-57912000D01*
D16*
%TO.N,CS0*%
X125349000Y-60960000D02*
X125349000Y-61595000D01*
D15*
X125349000Y-61595000D02*
X123845326Y-60091326D01*
X123845326Y-60091326D02*
X122920747Y-60091326D01*
X122920747Y-60091326D02*
X119294674Y-60091326D01*
X119294674Y-60091326D02*
X119284000Y-60102000D01*
D16*
%TO.N,MOSI*%
X125349000Y-58928000D02*
X125349000Y-59055000D01*
D15*
X125349000Y-59055000D02*
X122936008Y-59055000D01*
X122936008Y-59055000D02*
X122936000Y-59054992D01*
X122936000Y-59054992D02*
X119128487Y-59054992D01*
X119128487Y-59054992D02*
X118275990Y-58202495D01*
%TO.N,SCK*%
X120524988Y-57785000D02*
X119889988Y-58420000D01*
X122936000Y-57785000D02*
X120524988Y-57785000D01*
%TD*%
D14*
%TO.N,GND*%
G36*
X123444000Y-57402307D02*
G01*
X123429236Y-57380211D01*
X123340789Y-57291764D01*
X123236785Y-57222271D01*
X123121223Y-57174403D01*
X122998542Y-57150000D01*
X122873458Y-57150000D01*
X122750777Y-57174403D01*
X122635215Y-57222271D01*
X122531211Y-57291764D01*
X122495175Y-57327800D01*
X120547438Y-57327800D01*
X120524988Y-57325589D01*
X120502538Y-57327800D01*
X120502528Y-57327800D01*
X120435361Y-57334415D01*
X120369237Y-57354474D01*
X120349178Y-57360559D01*
X120269752Y-57403013D01*
X120217580Y-57445829D01*
X120217574Y-57445835D01*
X120200135Y-57460147D01*
X120185822Y-57477587D01*
X119878410Y-57785000D01*
X119827446Y-57785000D01*
X119704765Y-57809403D01*
X119589203Y-57857271D01*
X119485199Y-57926764D01*
X119396752Y-58015211D01*
X119327259Y-58119215D01*
X119279391Y-58234777D01*
X119254988Y-58357458D01*
X119254988Y-58482542D01*
X119267993Y-58547920D01*
X118910990Y-58190918D01*
X118910990Y-58139953D01*
X118886587Y-58017272D01*
X118838719Y-57901710D01*
X118769226Y-57797706D01*
X118680779Y-57709259D01*
X118576775Y-57639766D01*
X118461213Y-57591898D01*
X118338532Y-57567495D01*
X118213448Y-57567495D01*
X118090767Y-57591898D01*
X117975205Y-57639766D01*
X117871201Y-57709259D01*
X117835261Y-57745199D01*
X117831597Y-57726777D01*
X117783729Y-57611215D01*
X117714236Y-57507211D01*
X117625789Y-57418764D01*
X117521785Y-57349271D01*
X117406223Y-57301403D01*
X117283542Y-57277000D01*
X117158458Y-57277000D01*
X117035777Y-57301403D01*
X116920215Y-57349271D01*
X116816211Y-57418764D01*
X116727764Y-57507211D01*
X116710075Y-57533684D01*
X116667042Y-57525124D01*
X116541958Y-57525124D01*
X116419277Y-57549527D01*
X116303715Y-57597395D01*
X116199711Y-57666888D01*
X116190682Y-57675917D01*
X116174371Y-57677524D01*
X116174370Y-57677524D01*
X116103471Y-57684507D01*
X116012500Y-57712102D01*
X115928662Y-57756915D01*
X115855176Y-57817223D01*
X115840060Y-57835642D01*
X115616266Y-58059436D01*
X115601223Y-58059436D01*
X115478542Y-58083839D01*
X115362980Y-58131707D01*
X115258976Y-58201200D01*
X115170529Y-58289647D01*
X115101036Y-58393651D01*
X115053168Y-58509213D01*
X115028765Y-58631894D01*
X115028765Y-58756978D01*
X115053168Y-58879659D01*
X115101036Y-58995221D01*
X115170529Y-59099225D01*
X115258976Y-59187672D01*
X115362980Y-59257165D01*
X115478542Y-59305033D01*
X115601223Y-59329436D01*
X115726307Y-59329436D01*
X115848988Y-59305033D01*
X115964550Y-59257165D01*
X116068554Y-59187672D01*
X116157001Y-59099225D01*
X116226494Y-58995221D01*
X116274362Y-58879659D01*
X116298765Y-58756978D01*
X116298765Y-58741935D01*
X116313708Y-58726992D01*
X116419277Y-58770721D01*
X116541958Y-58795124D01*
X116667042Y-58795124D01*
X116722468Y-58784099D01*
X116737411Y-58859223D01*
X116785279Y-58974785D01*
X116854772Y-59078789D01*
X116890809Y-59114826D01*
X116890808Y-60381792D01*
X116888597Y-60404242D01*
X116890808Y-60426692D01*
X116890808Y-60426701D01*
X116897423Y-60493868D01*
X116923567Y-60580050D01*
X116966021Y-60659477D01*
X117023155Y-60729095D01*
X117040605Y-60743416D01*
X119342596Y-63045408D01*
X119356913Y-63062853D01*
X119374358Y-63077170D01*
X119426529Y-63119987D01*
X119468983Y-63142678D01*
X119505957Y-63162441D01*
X119592139Y-63188585D01*
X119659306Y-63195200D01*
X119659315Y-63195200D01*
X119681765Y-63197411D01*
X119704215Y-63195200D01*
X122605801Y-63195200D01*
X122605800Y-64366550D01*
X122603589Y-64389000D01*
X122605800Y-64411450D01*
X122605800Y-64411459D01*
X122612415Y-64478626D01*
X122638559Y-64564808D01*
X122681013Y-64644235D01*
X122738147Y-64713853D01*
X122755597Y-64728174D01*
X123444000Y-65416577D01*
X123444000Y-67945000D01*
X114554000Y-67945000D01*
X114554000Y-66231458D01*
X117348000Y-66231458D01*
X117348000Y-66356542D01*
X117372403Y-66479223D01*
X117420271Y-66594785D01*
X117489764Y-66698789D01*
X117578211Y-66787236D01*
X117682215Y-66856729D01*
X117797777Y-66904597D01*
X117920458Y-66929000D01*
X118045542Y-66929000D01*
X118168223Y-66904597D01*
X118283785Y-66856729D01*
X118387789Y-66787236D01*
X118423825Y-66751200D01*
X119484550Y-66751200D01*
X119507000Y-66753411D01*
X119529450Y-66751200D01*
X119529460Y-66751200D01*
X119596627Y-66744585D01*
X119682809Y-66718441D01*
X119762236Y-66675987D01*
X119831853Y-66618853D01*
X119846174Y-66601403D01*
X121485578Y-64962000D01*
X121536542Y-64962000D01*
X121659223Y-64937597D01*
X121774785Y-64889729D01*
X121878789Y-64820236D01*
X121967236Y-64731789D01*
X122036729Y-64627785D01*
X122084597Y-64512223D01*
X122109000Y-64389542D01*
X122109000Y-64264458D01*
X122084597Y-64141777D01*
X122036729Y-64026215D01*
X121967236Y-63922211D01*
X121878789Y-63833764D01*
X121774785Y-63764271D01*
X121659223Y-63716403D01*
X121536542Y-63692000D01*
X121411458Y-63692000D01*
X121288777Y-63716403D01*
X121173215Y-63764271D01*
X121069211Y-63833764D01*
X120980764Y-63922211D01*
X120911271Y-64026215D01*
X120863403Y-64141777D01*
X120839000Y-64264458D01*
X120839000Y-64315422D01*
X119317623Y-65836800D01*
X118423825Y-65836800D01*
X118387789Y-65800764D01*
X118283785Y-65731271D01*
X118168223Y-65683403D01*
X118045542Y-65659000D01*
X117920458Y-65659000D01*
X117797777Y-65683403D01*
X117682215Y-65731271D01*
X117578211Y-65800764D01*
X117489764Y-65889211D01*
X117420271Y-65993215D01*
X117372403Y-66108777D01*
X117348000Y-66231458D01*
X114554000Y-66231458D01*
X114554000Y-56054499D01*
X115640482Y-54968017D01*
X115658901Y-54952901D01*
X115719209Y-54879415D01*
X115764022Y-54795577D01*
X115791617Y-54704606D01*
X115798600Y-54633707D01*
X115798600Y-54633706D01*
X115800935Y-54610001D01*
X115798600Y-54586296D01*
X115798600Y-52485425D01*
X115809236Y-52474789D01*
X115878729Y-52370785D01*
X115926597Y-52255223D01*
X115951000Y-52132542D01*
X115951000Y-52007458D01*
X115926597Y-51884777D01*
X115878729Y-51769215D01*
X115809236Y-51665211D01*
X115720789Y-51576764D01*
X115616785Y-51507271D01*
X115501223Y-51459403D01*
X115378542Y-51435000D01*
X115253458Y-51435000D01*
X115130777Y-51459403D01*
X115015215Y-51507271D01*
X114911211Y-51576764D01*
X114822764Y-51665211D01*
X114785714Y-51720660D01*
X114739223Y-51701403D01*
X114616542Y-51677000D01*
X114554000Y-51677000D01*
X114554000Y-49213458D01*
X116332000Y-49213458D01*
X116332000Y-49338542D01*
X116356403Y-49461223D01*
X116404271Y-49576785D01*
X116473764Y-49680789D01*
X116562211Y-49769236D01*
X116666215Y-49838729D01*
X116781777Y-49886597D01*
X116904458Y-49911000D01*
X117029542Y-49911000D01*
X117152223Y-49886597D01*
X117267785Y-49838729D01*
X117349693Y-49784000D01*
X119609056Y-49784000D01*
X119634000Y-49786457D01*
X119658944Y-49784000D01*
X119658947Y-49784000D01*
X119733585Y-49776649D01*
X119829343Y-49747601D01*
X119917595Y-49700429D01*
X119976904Y-49651756D01*
X120073223Y-49632597D01*
X120188785Y-49584729D01*
X120292789Y-49515236D01*
X120381236Y-49426789D01*
X120450729Y-49322785D01*
X120498597Y-49207223D01*
X120523000Y-49084542D01*
X120523000Y-48959458D01*
X120498597Y-48836777D01*
X120450729Y-48721215D01*
X120381236Y-48617211D01*
X120292789Y-48528764D01*
X120188785Y-48459271D01*
X120073223Y-48411403D01*
X119950542Y-48387000D01*
X119825458Y-48387000D01*
X119702777Y-48411403D01*
X119587215Y-48459271D01*
X119483211Y-48528764D01*
X119394764Y-48617211D01*
X119325271Y-48721215D01*
X119305892Y-48768000D01*
X117349693Y-48768000D01*
X117267785Y-48713271D01*
X117152223Y-48665403D01*
X117029542Y-48641000D01*
X116904458Y-48641000D01*
X116781777Y-48665403D01*
X116666215Y-48713271D01*
X116562211Y-48782764D01*
X116473764Y-48871211D01*
X116404271Y-48975215D01*
X116356403Y-49090777D01*
X116332000Y-49213458D01*
X114554000Y-49213458D01*
X114554000Y-47625000D01*
X123444000Y-47625000D01*
X123444000Y-57402307D01*
G37*
X123444000Y-57402307D02*
X123429236Y-57380211D01*
X123340789Y-57291764D01*
X123236785Y-57222271D01*
X123121223Y-57174403D01*
X122998542Y-57150000D01*
X122873458Y-57150000D01*
X122750777Y-57174403D01*
X122635215Y-57222271D01*
X122531211Y-57291764D01*
X122495175Y-57327800D01*
X120547438Y-57327800D01*
X120524988Y-57325589D01*
X120502538Y-57327800D01*
X120502528Y-57327800D01*
X120435361Y-57334415D01*
X120369237Y-57354474D01*
X120349178Y-57360559D01*
X120269752Y-57403013D01*
X120217580Y-57445829D01*
X120217574Y-57445835D01*
X120200135Y-57460147D01*
X120185822Y-57477587D01*
X119878410Y-57785000D01*
X119827446Y-57785000D01*
X119704765Y-57809403D01*
X119589203Y-57857271D01*
X119485199Y-57926764D01*
X119396752Y-58015211D01*
X119327259Y-58119215D01*
X119279391Y-58234777D01*
X119254988Y-58357458D01*
X119254988Y-58482542D01*
X119267993Y-58547920D01*
X118910990Y-58190918D01*
X118910990Y-58139953D01*
X118886587Y-58017272D01*
X118838719Y-57901710D01*
X118769226Y-57797706D01*
X118680779Y-57709259D01*
X118576775Y-57639766D01*
X118461213Y-57591898D01*
X118338532Y-57567495D01*
X118213448Y-57567495D01*
X118090767Y-57591898D01*
X117975205Y-57639766D01*
X117871201Y-57709259D01*
X117835261Y-57745199D01*
X117831597Y-57726777D01*
X117783729Y-57611215D01*
X117714236Y-57507211D01*
X117625789Y-57418764D01*
X117521785Y-57349271D01*
X117406223Y-57301403D01*
X117283542Y-57277000D01*
X117158458Y-57277000D01*
X117035777Y-57301403D01*
X116920215Y-57349271D01*
X116816211Y-57418764D01*
X116727764Y-57507211D01*
X116710075Y-57533684D01*
X116667042Y-57525124D01*
X116541958Y-57525124D01*
X116419277Y-57549527D01*
X116303715Y-57597395D01*
X116199711Y-57666888D01*
X116190682Y-57675917D01*
X116174371Y-57677524D01*
X116174370Y-57677524D01*
X116103471Y-57684507D01*
X116012500Y-57712102D01*
X115928662Y-57756915D01*
X115855176Y-57817223D01*
X115840060Y-57835642D01*
X115616266Y-58059436D01*
X115601223Y-58059436D01*
X115478542Y-58083839D01*
X115362980Y-58131707D01*
X115258976Y-58201200D01*
X115170529Y-58289647D01*
X115101036Y-58393651D01*
X115053168Y-58509213D01*
X115028765Y-58631894D01*
X115028765Y-58756978D01*
X115053168Y-58879659D01*
X115101036Y-58995221D01*
X115170529Y-59099225D01*
X115258976Y-59187672D01*
X115362980Y-59257165D01*
X115478542Y-59305033D01*
X115601223Y-59329436D01*
X115726307Y-59329436D01*
X115848988Y-59305033D01*
X115964550Y-59257165D01*
X116068554Y-59187672D01*
X116157001Y-59099225D01*
X116226494Y-58995221D01*
X116274362Y-58879659D01*
X116298765Y-58756978D01*
X116298765Y-58741935D01*
X116313708Y-58726992D01*
X116419277Y-58770721D01*
X116541958Y-58795124D01*
X116667042Y-58795124D01*
X116722468Y-58784099D01*
X116737411Y-58859223D01*
X116785279Y-58974785D01*
X116854772Y-59078789D01*
X116890809Y-59114826D01*
X116890808Y-60381792D01*
X116888597Y-60404242D01*
X116890808Y-60426692D01*
X116890808Y-60426701D01*
X116897423Y-60493868D01*
X116923567Y-60580050D01*
X116966021Y-60659477D01*
X117023155Y-60729095D01*
X117040605Y-60743416D01*
X119342596Y-63045408D01*
X119356913Y-63062853D01*
X119374358Y-63077170D01*
X119426529Y-63119987D01*
X119468983Y-63142678D01*
X119505957Y-63162441D01*
X119592139Y-63188585D01*
X119659306Y-63195200D01*
X119659315Y-63195200D01*
X119681765Y-63197411D01*
X119704215Y-63195200D01*
X122605801Y-63195200D01*
X122605800Y-64366550D01*
X122603589Y-64389000D01*
X122605800Y-64411450D01*
X122605800Y-64411459D01*
X122612415Y-64478626D01*
X122638559Y-64564808D01*
X122681013Y-64644235D01*
X122738147Y-64713853D01*
X122755597Y-64728174D01*
X123444000Y-65416577D01*
X123444000Y-67945000D01*
X114554000Y-67945000D01*
X114554000Y-66231458D01*
X117348000Y-66231458D01*
X117348000Y-66356542D01*
X117372403Y-66479223D01*
X117420271Y-66594785D01*
X117489764Y-66698789D01*
X117578211Y-66787236D01*
X117682215Y-66856729D01*
X117797777Y-66904597D01*
X117920458Y-66929000D01*
X118045542Y-66929000D01*
X118168223Y-66904597D01*
X118283785Y-66856729D01*
X118387789Y-66787236D01*
X118423825Y-66751200D01*
X119484550Y-66751200D01*
X119507000Y-66753411D01*
X119529450Y-66751200D01*
X119529460Y-66751200D01*
X119596627Y-66744585D01*
X119682809Y-66718441D01*
X119762236Y-66675987D01*
X119831853Y-66618853D01*
X119846174Y-66601403D01*
X121485578Y-64962000D01*
X121536542Y-64962000D01*
X121659223Y-64937597D01*
X121774785Y-64889729D01*
X121878789Y-64820236D01*
X121967236Y-64731789D01*
X122036729Y-64627785D01*
X122084597Y-64512223D01*
X122109000Y-64389542D01*
X122109000Y-64264458D01*
X122084597Y-64141777D01*
X122036729Y-64026215D01*
X121967236Y-63922211D01*
X121878789Y-63833764D01*
X121774785Y-63764271D01*
X121659223Y-63716403D01*
X121536542Y-63692000D01*
X121411458Y-63692000D01*
X121288777Y-63716403D01*
X121173215Y-63764271D01*
X121069211Y-63833764D01*
X120980764Y-63922211D01*
X120911271Y-64026215D01*
X120863403Y-64141777D01*
X120839000Y-64264458D01*
X120839000Y-64315422D01*
X119317623Y-65836800D01*
X118423825Y-65836800D01*
X118387789Y-65800764D01*
X118283785Y-65731271D01*
X118168223Y-65683403D01*
X118045542Y-65659000D01*
X117920458Y-65659000D01*
X117797777Y-65683403D01*
X117682215Y-65731271D01*
X117578211Y-65800764D01*
X117489764Y-65889211D01*
X117420271Y-65993215D01*
X117372403Y-66108777D01*
X117348000Y-66231458D01*
X114554000Y-66231458D01*
X114554000Y-56054499D01*
X115640482Y-54968017D01*
X115658901Y-54952901D01*
X115719209Y-54879415D01*
X115764022Y-54795577D01*
X115791617Y-54704606D01*
X115798600Y-54633707D01*
X115798600Y-54633706D01*
X115800935Y-54610001D01*
X115798600Y-54586296D01*
X115798600Y-52485425D01*
X115809236Y-52474789D01*
X115878729Y-52370785D01*
X115926597Y-52255223D01*
X115951000Y-52132542D01*
X115951000Y-52007458D01*
X115926597Y-51884777D01*
X115878729Y-51769215D01*
X115809236Y-51665211D01*
X115720789Y-51576764D01*
X115616785Y-51507271D01*
X115501223Y-51459403D01*
X115378542Y-51435000D01*
X115253458Y-51435000D01*
X115130777Y-51459403D01*
X115015215Y-51507271D01*
X114911211Y-51576764D01*
X114822764Y-51665211D01*
X114785714Y-51720660D01*
X114739223Y-51701403D01*
X114616542Y-51677000D01*
X114554000Y-51677000D01*
X114554000Y-49213458D01*
X116332000Y-49213458D01*
X116332000Y-49338542D01*
X116356403Y-49461223D01*
X116404271Y-49576785D01*
X116473764Y-49680789D01*
X116562211Y-49769236D01*
X116666215Y-49838729D01*
X116781777Y-49886597D01*
X116904458Y-49911000D01*
X117029542Y-49911000D01*
X117152223Y-49886597D01*
X117267785Y-49838729D01*
X117349693Y-49784000D01*
X119609056Y-49784000D01*
X119634000Y-49786457D01*
X119658944Y-49784000D01*
X119658947Y-49784000D01*
X119733585Y-49776649D01*
X119829343Y-49747601D01*
X119917595Y-49700429D01*
X119976904Y-49651756D01*
X120073223Y-49632597D01*
X120188785Y-49584729D01*
X120292789Y-49515236D01*
X120381236Y-49426789D01*
X120450729Y-49322785D01*
X120498597Y-49207223D01*
X120523000Y-49084542D01*
X120523000Y-48959458D01*
X120498597Y-48836777D01*
X120450729Y-48721215D01*
X120381236Y-48617211D01*
X120292789Y-48528764D01*
X120188785Y-48459271D01*
X120073223Y-48411403D01*
X119950542Y-48387000D01*
X119825458Y-48387000D01*
X119702777Y-48411403D01*
X119587215Y-48459271D01*
X119483211Y-48528764D01*
X119394764Y-48617211D01*
X119325271Y-48721215D01*
X119305892Y-48768000D01*
X117349693Y-48768000D01*
X117267785Y-48713271D01*
X117152223Y-48665403D01*
X117029542Y-48641000D01*
X116904458Y-48641000D01*
X116781777Y-48665403D01*
X116666215Y-48713271D01*
X116562211Y-48782764D01*
X116473764Y-48871211D01*
X116404271Y-48975215D01*
X116356403Y-49090777D01*
X116332000Y-49213458D01*
X114554000Y-49213458D01*
X114554000Y-47625000D01*
X123444000Y-47625000D01*
X123444000Y-57402307D01*
%TD*%
M02*
