%TF.GenerationSoftware,KiCad,Pcbnew,(5.1.6)-1*%
%TF.CreationDate,2020-10-05T22:36:01-05:00*%
%TF.ProjectId,ice30lp384_dev_board,69636533-306c-4703-9338-345f6465765f,rev?*%
%TF.SameCoordinates,Original*%
%TF.FileFunction,Copper,L1,Top*%
%TF.FilePolarity,Positive*%
%FSLAX46Y46*%
G04 Gerber Fmt 4.6, Leading zero omitted, Abs format (unit mm)*
G04 Created by KiCad (PCBNEW (5.1.6)-1) date 2020-10-05 22:36:01*
%MOMM*%
%LPD*%
G01*
G04 APERTURE LIST*
%TA.AperFunction,SMDPad,CuDef*%
%ADD10R,3.100000X3.100000*%
%TD*%
%TA.AperFunction,SMDPad,CuDef*%
%ADD11R,0.650000X0.400000*%
%TD*%
%TA.AperFunction,ComponentPad*%
%ADD12O,1.700000X1.700000*%
%TD*%
%TA.AperFunction,ComponentPad*%
%ADD13R,1.700000X1.700000*%
%TD*%
%TA.AperFunction,SMDPad,CuDef*%
%ADD14R,0.900000X0.800000*%
%TD*%
%TA.AperFunction,ViaPad*%
%ADD15C,0.508000*%
%TD*%
%TA.AperFunction,ViaPad*%
%ADD16C,0.635000*%
%TD*%
%TA.AperFunction,Conductor*%
%ADD17C,0.152400*%
%TD*%
%TA.AperFunction,Conductor*%
%ADD18C,0.203200*%
%TD*%
%TA.AperFunction,Conductor*%
%ADD19C,0.254000*%
%TD*%
G04 APERTURE END LIST*
%TO.P,C3,2*%
%TO.N,GND*%
%TA.AperFunction,SMDPad,CuDef*%
G36*
G01*
X115737000Y-50972500D02*
X115737000Y-50627500D01*
G75*
G02*
X115884500Y-50480000I147500J0D01*
G01*
X116179500Y-50480000D01*
G75*
G02*
X116327000Y-50627500I0J-147500D01*
G01*
X116327000Y-50972500D01*
G75*
G02*
X116179500Y-51120000I-147500J0D01*
G01*
X115884500Y-51120000D01*
G75*
G02*
X115737000Y-50972500I0J147500D01*
G01*
G37*
%TD.AperFunction*%
%TO.P,C3,1*%
%TO.N,+3V3*%
%TA.AperFunction,SMDPad,CuDef*%
G36*
G01*
X114767000Y-50972500D02*
X114767000Y-50627500D01*
G75*
G02*
X114914500Y-50480000I147500J0D01*
G01*
X115209500Y-50480000D01*
G75*
G02*
X115357000Y-50627500I0J-147500D01*
G01*
X115357000Y-50972500D01*
G75*
G02*
X115209500Y-51120000I-147500J0D01*
G01*
X114914500Y-51120000D01*
G75*
G02*
X114767000Y-50972500I0J147500D01*
G01*
G37*
%TD.AperFunction*%
%TD*%
%TO.P,C2,2*%
%TO.N,GND*%
%TA.AperFunction,SMDPad,CuDef*%
G36*
G01*
X117943000Y-50500500D02*
X117943000Y-50845500D01*
G75*
G02*
X117795500Y-50993000I-147500J0D01*
G01*
X117500500Y-50993000D01*
G75*
G02*
X117353000Y-50845500I0J147500D01*
G01*
X117353000Y-50500500D01*
G75*
G02*
X117500500Y-50353000I147500J0D01*
G01*
X117795500Y-50353000D01*
G75*
G02*
X117943000Y-50500500I0J-147500D01*
G01*
G37*
%TD.AperFunction*%
%TO.P,C2,1*%
%TO.N,+1V2*%
%TA.AperFunction,SMDPad,CuDef*%
G36*
G01*
X118913000Y-50500500D02*
X118913000Y-50845500D01*
G75*
G02*
X118765500Y-50993000I-147500J0D01*
G01*
X118470500Y-50993000D01*
G75*
G02*
X118323000Y-50845500I0J147500D01*
G01*
X118323000Y-50500500D01*
G75*
G02*
X118470500Y-50353000I147500J0D01*
G01*
X118765500Y-50353000D01*
G75*
G02*
X118913000Y-50500500I0J-147500D01*
G01*
G37*
%TD.AperFunction*%
%TD*%
%TO.P,C1,2*%
%TO.N,GND*%
%TA.AperFunction,SMDPad,CuDef*%
G36*
G01*
X122388000Y-51008500D02*
X122388000Y-51353500D01*
G75*
G02*
X122240500Y-51501000I-147500J0D01*
G01*
X121945500Y-51501000D01*
G75*
G02*
X121798000Y-51353500I0J147500D01*
G01*
X121798000Y-51008500D01*
G75*
G02*
X121945500Y-50861000I147500J0D01*
G01*
X122240500Y-50861000D01*
G75*
G02*
X122388000Y-51008500I0J-147500D01*
G01*
G37*
%TD.AperFunction*%
%TO.P,C1,1*%
%TO.N,+3V3*%
%TA.AperFunction,SMDPad,CuDef*%
G36*
G01*
X123358000Y-51008500D02*
X123358000Y-51353500D01*
G75*
G02*
X123210500Y-51501000I-147500J0D01*
G01*
X122915500Y-51501000D01*
G75*
G02*
X122768000Y-51353500I0J147500D01*
G01*
X122768000Y-51008500D01*
G75*
G02*
X122915500Y-50861000I147500J0D01*
G01*
X123210500Y-50861000D01*
G75*
G02*
X123358000Y-51008500I0J-147500D01*
G01*
G37*
%TD.AperFunction*%
%TD*%
%TO.P,R5,2*%
%TO.N,SCK*%
%TA.AperFunction,SMDPad,CuDef*%
G36*
G01*
X121879000Y-57957500D02*
X121879000Y-57612500D01*
G75*
G02*
X122026500Y-57465000I147500J0D01*
G01*
X122321500Y-57465000D01*
G75*
G02*
X122469000Y-57612500I0J-147500D01*
G01*
X122469000Y-57957500D01*
G75*
G02*
X122321500Y-58105000I-147500J0D01*
G01*
X122026500Y-58105000D01*
G75*
G02*
X121879000Y-57957500I0J147500D01*
G01*
G37*
%TD.AperFunction*%
%TO.P,R5,1*%
%TO.N,+3V3*%
%TA.AperFunction,SMDPad,CuDef*%
G36*
G01*
X120909000Y-57957500D02*
X120909000Y-57612500D01*
G75*
G02*
X121056500Y-57465000I147500J0D01*
G01*
X121351500Y-57465000D01*
G75*
G02*
X121499000Y-57612500I0J-147500D01*
G01*
X121499000Y-57957500D01*
G75*
G02*
X121351500Y-58105000I-147500J0D01*
G01*
X121056500Y-58105000D01*
G75*
G02*
X120909000Y-57957500I0J147500D01*
G01*
G37*
%TD.AperFunction*%
%TD*%
%TO.P,R4,2*%
%TO.N,MOSI*%
%TA.AperFunction,SMDPad,CuDef*%
G36*
G01*
X121879000Y-59100500D02*
X121879000Y-58755500D01*
G75*
G02*
X122026500Y-58608000I147500J0D01*
G01*
X122321500Y-58608000D01*
G75*
G02*
X122469000Y-58755500I0J-147500D01*
G01*
X122469000Y-59100500D01*
G75*
G02*
X122321500Y-59248000I-147500J0D01*
G01*
X122026500Y-59248000D01*
G75*
G02*
X121879000Y-59100500I0J147500D01*
G01*
G37*
%TD.AperFunction*%
%TO.P,R4,1*%
%TO.N,+3V3*%
%TA.AperFunction,SMDPad,CuDef*%
G36*
G01*
X120909000Y-59100500D02*
X120909000Y-58755500D01*
G75*
G02*
X121056500Y-58608000I147500J0D01*
G01*
X121351500Y-58608000D01*
G75*
G02*
X121499000Y-58755500I0J-147500D01*
G01*
X121499000Y-59100500D01*
G75*
G02*
X121351500Y-59248000I-147500J0D01*
G01*
X121056500Y-59248000D01*
G75*
G02*
X120909000Y-59100500I0J147500D01*
G01*
G37*
%TD.AperFunction*%
%TD*%
%TO.P,R3,2*%
%TO.N,CS0*%
%TA.AperFunction,SMDPad,CuDef*%
G36*
G01*
X121856000Y-60243500D02*
X121856000Y-59898500D01*
G75*
G02*
X122003500Y-59751000I147500J0D01*
G01*
X122298500Y-59751000D01*
G75*
G02*
X122446000Y-59898500I0J-147500D01*
G01*
X122446000Y-60243500D01*
G75*
G02*
X122298500Y-60391000I-147500J0D01*
G01*
X122003500Y-60391000D01*
G75*
G02*
X121856000Y-60243500I0J147500D01*
G01*
G37*
%TD.AperFunction*%
%TO.P,R3,1*%
%TO.N,+3V3*%
%TA.AperFunction,SMDPad,CuDef*%
G36*
G01*
X120886000Y-60243500D02*
X120886000Y-59898500D01*
G75*
G02*
X121033500Y-59751000I147500J0D01*
G01*
X121328500Y-59751000D01*
G75*
G02*
X121476000Y-59898500I0J-147500D01*
G01*
X121476000Y-60243500D01*
G75*
G02*
X121328500Y-60391000I-147500J0D01*
G01*
X121033500Y-60391000D01*
G75*
G02*
X120886000Y-60243500I0J147500D01*
G01*
G37*
%TD.AperFunction*%
%TD*%
%TO.P,R2,2*%
%TO.N,CDONE*%
%TA.AperFunction,SMDPad,CuDef*%
G36*
G01*
X121879000Y-62529500D02*
X121879000Y-62184500D01*
G75*
G02*
X122026500Y-62037000I147500J0D01*
G01*
X122321500Y-62037000D01*
G75*
G02*
X122469000Y-62184500I0J-147500D01*
G01*
X122469000Y-62529500D01*
G75*
G02*
X122321500Y-62677000I-147500J0D01*
G01*
X122026500Y-62677000D01*
G75*
G02*
X121879000Y-62529500I0J147500D01*
G01*
G37*
%TD.AperFunction*%
%TO.P,R2,1*%
%TO.N,+3V3*%
%TA.AperFunction,SMDPad,CuDef*%
G36*
G01*
X120909000Y-62529500D02*
X120909000Y-62184500D01*
G75*
G02*
X121056500Y-62037000I147500J0D01*
G01*
X121351500Y-62037000D01*
G75*
G02*
X121499000Y-62184500I0J-147500D01*
G01*
X121499000Y-62529500D01*
G75*
G02*
X121351500Y-62677000I-147500J0D01*
G01*
X121056500Y-62677000D01*
G75*
G02*
X120909000Y-62529500I0J147500D01*
G01*
G37*
%TD.AperFunction*%
%TD*%
%TO.P,R1,2*%
%TO.N,CRESET*%
%TA.AperFunction,SMDPad,CuDef*%
G36*
G01*
X121879000Y-61386500D02*
X121879000Y-61041500D01*
G75*
G02*
X122026500Y-60894000I147500J0D01*
G01*
X122321500Y-60894000D01*
G75*
G02*
X122469000Y-61041500I0J-147500D01*
G01*
X122469000Y-61386500D01*
G75*
G02*
X122321500Y-61534000I-147500J0D01*
G01*
X122026500Y-61534000D01*
G75*
G02*
X121879000Y-61386500I0J147500D01*
G01*
G37*
%TD.AperFunction*%
%TO.P,R1,1*%
%TO.N,+3V3*%
%TA.AperFunction,SMDPad,CuDef*%
G36*
G01*
X120909000Y-61386500D02*
X120909000Y-61041500D01*
G75*
G02*
X121056500Y-60894000I147500J0D01*
G01*
X121351500Y-60894000D01*
G75*
G02*
X121499000Y-61041500I0J-147500D01*
G01*
X121499000Y-61386500D01*
G75*
G02*
X121351500Y-61534000I-147500J0D01*
G01*
X121056500Y-61534000D01*
G75*
G02*
X120909000Y-61386500I0J147500D01*
G01*
G37*
%TD.AperFunction*%
%TD*%
%TO.P,U4,8*%
%TO.N,+3V3*%
%TA.AperFunction,SMDPad,CuDef*%
G36*
G01*
X120499000Y-63904000D02*
X120499000Y-63604000D01*
G75*
G02*
X120649000Y-63454000I150000J0D01*
G01*
X122299000Y-63454000D01*
G75*
G02*
X122449000Y-63604000I0J-150000D01*
G01*
X122449000Y-63904000D01*
G75*
G02*
X122299000Y-64054000I-150000J0D01*
G01*
X120649000Y-64054000D01*
G75*
G02*
X120499000Y-63904000I0J150000D01*
G01*
G37*
%TD.AperFunction*%
%TO.P,U4,7*%
%TA.AperFunction,SMDPad,CuDef*%
G36*
G01*
X120499000Y-65174000D02*
X120499000Y-64874000D01*
G75*
G02*
X120649000Y-64724000I150000J0D01*
G01*
X122299000Y-64724000D01*
G75*
G02*
X122449000Y-64874000I0J-150000D01*
G01*
X122449000Y-65174000D01*
G75*
G02*
X122299000Y-65324000I-150000J0D01*
G01*
X120649000Y-65324000D01*
G75*
G02*
X120499000Y-65174000I0J150000D01*
G01*
G37*
%TD.AperFunction*%
%TO.P,U4,6*%
%TO.N,SCK*%
%TA.AperFunction,SMDPad,CuDef*%
G36*
G01*
X120499000Y-66444000D02*
X120499000Y-66144000D01*
G75*
G02*
X120649000Y-65994000I150000J0D01*
G01*
X122299000Y-65994000D01*
G75*
G02*
X122449000Y-66144000I0J-150000D01*
G01*
X122449000Y-66444000D01*
G75*
G02*
X122299000Y-66594000I-150000J0D01*
G01*
X120649000Y-66594000D01*
G75*
G02*
X120499000Y-66444000I0J150000D01*
G01*
G37*
%TD.AperFunction*%
%TO.P,U4,5*%
%TO.N,MOSI*%
%TA.AperFunction,SMDPad,CuDef*%
G36*
G01*
X120499000Y-67714000D02*
X120499000Y-67414000D01*
G75*
G02*
X120649000Y-67264000I150000J0D01*
G01*
X122299000Y-67264000D01*
G75*
G02*
X122449000Y-67414000I0J-150000D01*
G01*
X122449000Y-67714000D01*
G75*
G02*
X122299000Y-67864000I-150000J0D01*
G01*
X120649000Y-67864000D01*
G75*
G02*
X120499000Y-67714000I0J150000D01*
G01*
G37*
%TD.AperFunction*%
%TO.P,U4,4*%
%TO.N,GND*%
%TA.AperFunction,SMDPad,CuDef*%
G36*
G01*
X115549000Y-67714000D02*
X115549000Y-67414000D01*
G75*
G02*
X115699000Y-67264000I150000J0D01*
G01*
X117349000Y-67264000D01*
G75*
G02*
X117499000Y-67414000I0J-150000D01*
G01*
X117499000Y-67714000D01*
G75*
G02*
X117349000Y-67864000I-150000J0D01*
G01*
X115699000Y-67864000D01*
G75*
G02*
X115549000Y-67714000I0J150000D01*
G01*
G37*
%TD.AperFunction*%
%TO.P,U4,3*%
%TO.N,+3V3*%
%TA.AperFunction,SMDPad,CuDef*%
G36*
G01*
X115549000Y-66444000D02*
X115549000Y-66144000D01*
G75*
G02*
X115699000Y-65994000I150000J0D01*
G01*
X117349000Y-65994000D01*
G75*
G02*
X117499000Y-66144000I0J-150000D01*
G01*
X117499000Y-66444000D01*
G75*
G02*
X117349000Y-66594000I-150000J0D01*
G01*
X115699000Y-66594000D01*
G75*
G02*
X115549000Y-66444000I0J150000D01*
G01*
G37*
%TD.AperFunction*%
%TO.P,U4,2*%
%TO.N,MISO*%
%TA.AperFunction,SMDPad,CuDef*%
G36*
G01*
X115549000Y-65174000D02*
X115549000Y-64874000D01*
G75*
G02*
X115699000Y-64724000I150000J0D01*
G01*
X117349000Y-64724000D01*
G75*
G02*
X117499000Y-64874000I0J-150000D01*
G01*
X117499000Y-65174000D01*
G75*
G02*
X117349000Y-65324000I-150000J0D01*
G01*
X115699000Y-65324000D01*
G75*
G02*
X115549000Y-65174000I0J150000D01*
G01*
G37*
%TD.AperFunction*%
%TO.P,U4,1*%
%TO.N,CS0*%
%TA.AperFunction,SMDPad,CuDef*%
G36*
G01*
X115549000Y-63904000D02*
X115549000Y-63604000D01*
G75*
G02*
X115699000Y-63454000I150000J0D01*
G01*
X117349000Y-63454000D01*
G75*
G02*
X117499000Y-63604000I0J-150000D01*
G01*
X117499000Y-63904000D01*
G75*
G02*
X117349000Y-64054000I-150000J0D01*
G01*
X115699000Y-64054000D01*
G75*
G02*
X115549000Y-63904000I0J150000D01*
G01*
G37*
%TD.AperFunction*%
%TD*%
D10*
%TO.P,U3,33*%
%TO.N,GND*%
X118534000Y-54570000D03*
%TO.P,U3,32*%
%TO.N,Net-(J1-Pad8)*%
%TA.AperFunction,SMDPad,CuDef*%
G36*
G01*
X116659000Y-52507500D02*
X116659000Y-51757500D01*
G75*
G02*
X116721500Y-51695000I62500J0D01*
G01*
X116846500Y-51695000D01*
G75*
G02*
X116909000Y-51757500I0J-62500D01*
G01*
X116909000Y-52507500D01*
G75*
G02*
X116846500Y-52570000I-62500J0D01*
G01*
X116721500Y-52570000D01*
G75*
G02*
X116659000Y-52507500I0J62500D01*
G01*
G37*
%TD.AperFunction*%
%TO.P,U3,31*%
%TO.N,Net-(U3-Pad31)*%
%TA.AperFunction,SMDPad,CuDef*%
G36*
G01*
X117159000Y-52507500D02*
X117159000Y-51757500D01*
G75*
G02*
X117221500Y-51695000I62500J0D01*
G01*
X117346500Y-51695000D01*
G75*
G02*
X117409000Y-51757500I0J-62500D01*
G01*
X117409000Y-52507500D01*
G75*
G02*
X117346500Y-52570000I-62500J0D01*
G01*
X117221500Y-52570000D01*
G75*
G02*
X117159000Y-52507500I0J62500D01*
G01*
G37*
%TD.AperFunction*%
%TO.P,U3,30*%
%TO.N,Net-(U3-Pad30)*%
%TA.AperFunction,SMDPad,CuDef*%
G36*
G01*
X117659000Y-52507500D02*
X117659000Y-51757500D01*
G75*
G02*
X117721500Y-51695000I62500J0D01*
G01*
X117846500Y-51695000D01*
G75*
G02*
X117909000Y-51757500I0J-62500D01*
G01*
X117909000Y-52507500D01*
G75*
G02*
X117846500Y-52570000I-62500J0D01*
G01*
X117721500Y-52570000D01*
G75*
G02*
X117659000Y-52507500I0J62500D01*
G01*
G37*
%TD.AperFunction*%
%TO.P,U3,29*%
%TO.N,Net-(U3-Pad29)*%
%TA.AperFunction,SMDPad,CuDef*%
G36*
G01*
X118159000Y-52507500D02*
X118159000Y-51757500D01*
G75*
G02*
X118221500Y-51695000I62500J0D01*
G01*
X118346500Y-51695000D01*
G75*
G02*
X118409000Y-51757500I0J-62500D01*
G01*
X118409000Y-52507500D01*
G75*
G02*
X118346500Y-52570000I-62500J0D01*
G01*
X118221500Y-52570000D01*
G75*
G02*
X118159000Y-52507500I0J62500D01*
G01*
G37*
%TD.AperFunction*%
%TO.P,U3,28*%
%TO.N,+3V3*%
%TA.AperFunction,SMDPad,CuDef*%
G36*
G01*
X118659000Y-52507500D02*
X118659000Y-51757500D01*
G75*
G02*
X118721500Y-51695000I62500J0D01*
G01*
X118846500Y-51695000D01*
G75*
G02*
X118909000Y-51757500I0J-62500D01*
G01*
X118909000Y-52507500D01*
G75*
G02*
X118846500Y-52570000I-62500J0D01*
G01*
X118721500Y-52570000D01*
G75*
G02*
X118659000Y-52507500I0J62500D01*
G01*
G37*
%TD.AperFunction*%
%TO.P,U3,27*%
%TO.N,Net-(U3-Pad27)*%
%TA.AperFunction,SMDPad,CuDef*%
G36*
G01*
X119159000Y-52507500D02*
X119159000Y-51757500D01*
G75*
G02*
X119221500Y-51695000I62500J0D01*
G01*
X119346500Y-51695000D01*
G75*
G02*
X119409000Y-51757500I0J-62500D01*
G01*
X119409000Y-52507500D01*
G75*
G02*
X119346500Y-52570000I-62500J0D01*
G01*
X119221500Y-52570000D01*
G75*
G02*
X119159000Y-52507500I0J62500D01*
G01*
G37*
%TD.AperFunction*%
%TO.P,U3,26*%
%TO.N,Net-(U3-Pad26)*%
%TA.AperFunction,SMDPad,CuDef*%
G36*
G01*
X119659000Y-52507500D02*
X119659000Y-51757500D01*
G75*
G02*
X119721500Y-51695000I62500J0D01*
G01*
X119846500Y-51695000D01*
G75*
G02*
X119909000Y-51757500I0J-62500D01*
G01*
X119909000Y-52507500D01*
G75*
G02*
X119846500Y-52570000I-62500J0D01*
G01*
X119721500Y-52570000D01*
G75*
G02*
X119659000Y-52507500I0J62500D01*
G01*
G37*
%TD.AperFunction*%
%TO.P,U3,25*%
%TO.N,+1V2*%
%TA.AperFunction,SMDPad,CuDef*%
G36*
G01*
X120159000Y-52507500D02*
X120159000Y-51757500D01*
G75*
G02*
X120221500Y-51695000I62500J0D01*
G01*
X120346500Y-51695000D01*
G75*
G02*
X120409000Y-51757500I0J-62500D01*
G01*
X120409000Y-52507500D01*
G75*
G02*
X120346500Y-52570000I-62500J0D01*
G01*
X120221500Y-52570000D01*
G75*
G02*
X120159000Y-52507500I0J62500D01*
G01*
G37*
%TD.AperFunction*%
%TO.P,U3,24*%
%TO.N,+2V5*%
%TA.AperFunction,SMDPad,CuDef*%
G36*
G01*
X120534000Y-52882500D02*
X120534000Y-52757500D01*
G75*
G02*
X120596500Y-52695000I62500J0D01*
G01*
X121346500Y-52695000D01*
G75*
G02*
X121409000Y-52757500I0J-62500D01*
G01*
X121409000Y-52882500D01*
G75*
G02*
X121346500Y-52945000I-62500J0D01*
G01*
X120596500Y-52945000D01*
G75*
G02*
X120534000Y-52882500I0J62500D01*
G01*
G37*
%TD.AperFunction*%
%TO.P,U3,23*%
%TO.N,Net-(U3-Pad23)*%
%TA.AperFunction,SMDPad,CuDef*%
G36*
G01*
X120534000Y-53382500D02*
X120534000Y-53257500D01*
G75*
G02*
X120596500Y-53195000I62500J0D01*
G01*
X121346500Y-53195000D01*
G75*
G02*
X121409000Y-53257500I0J-62500D01*
G01*
X121409000Y-53382500D01*
G75*
G02*
X121346500Y-53445000I-62500J0D01*
G01*
X120596500Y-53445000D01*
G75*
G02*
X120534000Y-53382500I0J62500D01*
G01*
G37*
%TD.AperFunction*%
%TO.P,U3,22*%
%TO.N,Net-(U3-Pad22)*%
%TA.AperFunction,SMDPad,CuDef*%
G36*
G01*
X120534000Y-53882500D02*
X120534000Y-53757500D01*
G75*
G02*
X120596500Y-53695000I62500J0D01*
G01*
X121346500Y-53695000D01*
G75*
G02*
X121409000Y-53757500I0J-62500D01*
G01*
X121409000Y-53882500D01*
G75*
G02*
X121346500Y-53945000I-62500J0D01*
G01*
X120596500Y-53945000D01*
G75*
G02*
X120534000Y-53882500I0J62500D01*
G01*
G37*
%TD.AperFunction*%
%TO.P,U3,21*%
%TO.N,GND*%
%TA.AperFunction,SMDPad,CuDef*%
G36*
G01*
X120534000Y-54382500D02*
X120534000Y-54257500D01*
G75*
G02*
X120596500Y-54195000I62500J0D01*
G01*
X121346500Y-54195000D01*
G75*
G02*
X121409000Y-54257500I0J-62500D01*
G01*
X121409000Y-54382500D01*
G75*
G02*
X121346500Y-54445000I-62500J0D01*
G01*
X120596500Y-54445000D01*
G75*
G02*
X120534000Y-54382500I0J62500D01*
G01*
G37*
%TD.AperFunction*%
%TO.P,U3,20*%
%TO.N,Net-(U3-Pad20)*%
%TA.AperFunction,SMDPad,CuDef*%
G36*
G01*
X120534000Y-54882500D02*
X120534000Y-54757500D01*
G75*
G02*
X120596500Y-54695000I62500J0D01*
G01*
X121346500Y-54695000D01*
G75*
G02*
X121409000Y-54757500I0J-62500D01*
G01*
X121409000Y-54882500D01*
G75*
G02*
X121346500Y-54945000I-62500J0D01*
G01*
X120596500Y-54945000D01*
G75*
G02*
X120534000Y-54882500I0J62500D01*
G01*
G37*
%TD.AperFunction*%
%TO.P,U3,19*%
%TO.N,Net-(U3-Pad19)*%
%TA.AperFunction,SMDPad,CuDef*%
G36*
G01*
X120534000Y-55382500D02*
X120534000Y-55257500D01*
G75*
G02*
X120596500Y-55195000I62500J0D01*
G01*
X121346500Y-55195000D01*
G75*
G02*
X121409000Y-55257500I0J-62500D01*
G01*
X121409000Y-55382500D01*
G75*
G02*
X121346500Y-55445000I-62500J0D01*
G01*
X120596500Y-55445000D01*
G75*
G02*
X120534000Y-55382500I0J62500D01*
G01*
G37*
%TD.AperFunction*%
%TO.P,U3,18*%
%TO.N,Net-(U3-Pad18)*%
%TA.AperFunction,SMDPad,CuDef*%
G36*
G01*
X120534000Y-55882500D02*
X120534000Y-55757500D01*
G75*
G02*
X120596500Y-55695000I62500J0D01*
G01*
X121346500Y-55695000D01*
G75*
G02*
X121409000Y-55757500I0J-62500D01*
G01*
X121409000Y-55882500D01*
G75*
G02*
X121346500Y-55945000I-62500J0D01*
G01*
X120596500Y-55945000D01*
G75*
G02*
X120534000Y-55882500I0J62500D01*
G01*
G37*
%TD.AperFunction*%
%TO.P,U3,17*%
%TO.N,+3V3*%
%TA.AperFunction,SMDPad,CuDef*%
G36*
G01*
X120534000Y-56382500D02*
X120534000Y-56257500D01*
G75*
G02*
X120596500Y-56195000I62500J0D01*
G01*
X121346500Y-56195000D01*
G75*
G02*
X121409000Y-56257500I0J-62500D01*
G01*
X121409000Y-56382500D01*
G75*
G02*
X121346500Y-56445000I-62500J0D01*
G01*
X120596500Y-56445000D01*
G75*
G02*
X120534000Y-56382500I0J62500D01*
G01*
G37*
%TD.AperFunction*%
%TO.P,U3,16*%
%TA.AperFunction,SMDPad,CuDef*%
G36*
G01*
X120159000Y-57382500D02*
X120159000Y-56632500D01*
G75*
G02*
X120221500Y-56570000I62500J0D01*
G01*
X120346500Y-56570000D01*
G75*
G02*
X120409000Y-56632500I0J-62500D01*
G01*
X120409000Y-57382500D01*
G75*
G02*
X120346500Y-57445000I-62500J0D01*
G01*
X120221500Y-57445000D01*
G75*
G02*
X120159000Y-57382500I0J62500D01*
G01*
G37*
%TD.AperFunction*%
%TO.P,U3,15*%
%TO.N,SCK*%
%TA.AperFunction,SMDPad,CuDef*%
G36*
G01*
X119659000Y-57382500D02*
X119659000Y-56632500D01*
G75*
G02*
X119721500Y-56570000I62500J0D01*
G01*
X119846500Y-56570000D01*
G75*
G02*
X119909000Y-56632500I0J-62500D01*
G01*
X119909000Y-57382500D01*
G75*
G02*
X119846500Y-57445000I-62500J0D01*
G01*
X119721500Y-57445000D01*
G75*
G02*
X119659000Y-57382500I0J62500D01*
G01*
G37*
%TD.AperFunction*%
%TO.P,U3,14*%
%TO.N,CS0*%
%TA.AperFunction,SMDPad,CuDef*%
G36*
G01*
X119159000Y-57382500D02*
X119159000Y-56632500D01*
G75*
G02*
X119221500Y-56570000I62500J0D01*
G01*
X119346500Y-56570000D01*
G75*
G02*
X119409000Y-56632500I0J-62500D01*
G01*
X119409000Y-57382500D01*
G75*
G02*
X119346500Y-57445000I-62500J0D01*
G01*
X119221500Y-57445000D01*
G75*
G02*
X119159000Y-57382500I0J62500D01*
G01*
G37*
%TD.AperFunction*%
%TO.P,U3,13*%
%TO.N,MISO*%
%TA.AperFunction,SMDPad,CuDef*%
G36*
G01*
X118659000Y-57382500D02*
X118659000Y-56632500D01*
G75*
G02*
X118721500Y-56570000I62500J0D01*
G01*
X118846500Y-56570000D01*
G75*
G02*
X118909000Y-56632500I0J-62500D01*
G01*
X118909000Y-57382500D01*
G75*
G02*
X118846500Y-57445000I-62500J0D01*
G01*
X118721500Y-57445000D01*
G75*
G02*
X118659000Y-57382500I0J62500D01*
G01*
G37*
%TD.AperFunction*%
%TO.P,U3,12*%
%TO.N,MOSI*%
%TA.AperFunction,SMDPad,CuDef*%
G36*
G01*
X118159000Y-57382500D02*
X118159000Y-56632500D01*
G75*
G02*
X118221500Y-56570000I62500J0D01*
G01*
X118346500Y-56570000D01*
G75*
G02*
X118409000Y-56632500I0J-62500D01*
G01*
X118409000Y-57382500D01*
G75*
G02*
X118346500Y-57445000I-62500J0D01*
G01*
X118221500Y-57445000D01*
G75*
G02*
X118159000Y-57382500I0J62500D01*
G01*
G37*
%TD.AperFunction*%
%TO.P,U3,11*%
%TO.N,CDONE*%
%TA.AperFunction,SMDPad,CuDef*%
G36*
G01*
X117659000Y-57382500D02*
X117659000Y-56632500D01*
G75*
G02*
X117721500Y-56570000I62500J0D01*
G01*
X117846500Y-56570000D01*
G75*
G02*
X117909000Y-56632500I0J-62500D01*
G01*
X117909000Y-57382500D01*
G75*
G02*
X117846500Y-57445000I-62500J0D01*
G01*
X117721500Y-57445000D01*
G75*
G02*
X117659000Y-57382500I0J62500D01*
G01*
G37*
%TD.AperFunction*%
%TO.P,U3,10*%
%TO.N,CRESET*%
%TA.AperFunction,SMDPad,CuDef*%
G36*
G01*
X117159000Y-57382500D02*
X117159000Y-56632500D01*
G75*
G02*
X117221500Y-56570000I62500J0D01*
G01*
X117346500Y-56570000D01*
G75*
G02*
X117409000Y-56632500I0J-62500D01*
G01*
X117409000Y-57382500D01*
G75*
G02*
X117346500Y-57445000I-62500J0D01*
G01*
X117221500Y-57445000D01*
G75*
G02*
X117159000Y-57382500I0J62500D01*
G01*
G37*
%TD.AperFunction*%
%TO.P,U3,9*%
%TO.N,+3V3*%
%TA.AperFunction,SMDPad,CuDef*%
G36*
G01*
X116659000Y-57382500D02*
X116659000Y-56632500D01*
G75*
G02*
X116721500Y-56570000I62500J0D01*
G01*
X116846500Y-56570000D01*
G75*
G02*
X116909000Y-56632500I0J-62500D01*
G01*
X116909000Y-57382500D01*
G75*
G02*
X116846500Y-57445000I-62500J0D01*
G01*
X116721500Y-57445000D01*
G75*
G02*
X116659000Y-57382500I0J62500D01*
G01*
G37*
%TD.AperFunction*%
%TO.P,U3,8*%
%TO.N,CLK*%
%TA.AperFunction,SMDPad,CuDef*%
G36*
G01*
X115659000Y-56382500D02*
X115659000Y-56257500D01*
G75*
G02*
X115721500Y-56195000I62500J0D01*
G01*
X116471500Y-56195000D01*
G75*
G02*
X116534000Y-56257500I0J-62500D01*
G01*
X116534000Y-56382500D01*
G75*
G02*
X116471500Y-56445000I-62500J0D01*
G01*
X115721500Y-56445000D01*
G75*
G02*
X115659000Y-56382500I0J62500D01*
G01*
G37*
%TD.AperFunction*%
%TO.P,U3,7*%
%TO.N,Net-(J1-Pad7)*%
%TA.AperFunction,SMDPad,CuDef*%
G36*
G01*
X115659000Y-55882500D02*
X115659000Y-55757500D01*
G75*
G02*
X115721500Y-55695000I62500J0D01*
G01*
X116471500Y-55695000D01*
G75*
G02*
X116534000Y-55757500I0J-62500D01*
G01*
X116534000Y-55882500D01*
G75*
G02*
X116471500Y-55945000I-62500J0D01*
G01*
X115721500Y-55945000D01*
G75*
G02*
X115659000Y-55882500I0J62500D01*
G01*
G37*
%TD.AperFunction*%
%TO.P,U3,6*%
%TO.N,Net-(J1-Pad6)*%
%TA.AperFunction,SMDPad,CuDef*%
G36*
G01*
X115659000Y-55382500D02*
X115659000Y-55257500D01*
G75*
G02*
X115721500Y-55195000I62500J0D01*
G01*
X116471500Y-55195000D01*
G75*
G02*
X116534000Y-55257500I0J-62500D01*
G01*
X116534000Y-55382500D01*
G75*
G02*
X116471500Y-55445000I-62500J0D01*
G01*
X115721500Y-55445000D01*
G75*
G02*
X115659000Y-55382500I0J62500D01*
G01*
G37*
%TD.AperFunction*%
%TO.P,U3,5*%
%TO.N,Net-(J1-Pad5)*%
%TA.AperFunction,SMDPad,CuDef*%
G36*
G01*
X115659000Y-54882500D02*
X115659000Y-54757500D01*
G75*
G02*
X115721500Y-54695000I62500J0D01*
G01*
X116471500Y-54695000D01*
G75*
G02*
X116534000Y-54757500I0J-62500D01*
G01*
X116534000Y-54882500D01*
G75*
G02*
X116471500Y-54945000I-62500J0D01*
G01*
X115721500Y-54945000D01*
G75*
G02*
X115659000Y-54882500I0J62500D01*
G01*
G37*
%TD.AperFunction*%
%TO.P,U3,4*%
%TO.N,+3V3*%
%TA.AperFunction,SMDPad,CuDef*%
G36*
G01*
X115659000Y-54382500D02*
X115659000Y-54257500D01*
G75*
G02*
X115721500Y-54195000I62500J0D01*
G01*
X116471500Y-54195000D01*
G75*
G02*
X116534000Y-54257500I0J-62500D01*
G01*
X116534000Y-54382500D01*
G75*
G02*
X116471500Y-54445000I-62500J0D01*
G01*
X115721500Y-54445000D01*
G75*
G02*
X115659000Y-54382500I0J62500D01*
G01*
G37*
%TD.AperFunction*%
%TO.P,U3,3*%
%TO.N,GND*%
%TA.AperFunction,SMDPad,CuDef*%
G36*
G01*
X115659000Y-53882500D02*
X115659000Y-53757500D01*
G75*
G02*
X115721500Y-53695000I62500J0D01*
G01*
X116471500Y-53695000D01*
G75*
G02*
X116534000Y-53757500I0J-62500D01*
G01*
X116534000Y-53882500D01*
G75*
G02*
X116471500Y-53945000I-62500J0D01*
G01*
X115721500Y-53945000D01*
G75*
G02*
X115659000Y-53882500I0J62500D01*
G01*
G37*
%TD.AperFunction*%
%TO.P,U3,2*%
%TO.N,Net-(J1-Pad4)*%
%TA.AperFunction,SMDPad,CuDef*%
G36*
G01*
X115659000Y-53382500D02*
X115659000Y-53257500D01*
G75*
G02*
X115721500Y-53195000I62500J0D01*
G01*
X116471500Y-53195000D01*
G75*
G02*
X116534000Y-53257500I0J-62500D01*
G01*
X116534000Y-53382500D01*
G75*
G02*
X116471500Y-53445000I-62500J0D01*
G01*
X115721500Y-53445000D01*
G75*
G02*
X115659000Y-53382500I0J62500D01*
G01*
G37*
%TD.AperFunction*%
%TO.P,U3,1*%
%TO.N,Net-(J1-Pad3)*%
%TA.AperFunction,SMDPad,CuDef*%
G36*
G01*
X115659000Y-52882500D02*
X115659000Y-52757500D01*
G75*
G02*
X115721500Y-52695000I62500J0D01*
G01*
X116471500Y-52695000D01*
G75*
G02*
X116534000Y-52757500I0J-62500D01*
G01*
X116534000Y-52882500D01*
G75*
G02*
X116471500Y-52945000I-62500J0D01*
G01*
X115721500Y-52945000D01*
G75*
G02*
X115659000Y-52882500I0J62500D01*
G01*
G37*
%TD.AperFunction*%
%TD*%
%TO.P,U2,3*%
%TO.N,CLK*%
%TA.AperFunction,SMDPad,CuDef*%
G36*
G01*
X118015000Y-60000000D02*
X117515000Y-60000000D01*
G75*
G02*
X117315000Y-59800000I0J200000D01*
G01*
X117315000Y-59400000D01*
G75*
G02*
X117515000Y-59200000I200000J0D01*
G01*
X118015000Y-59200000D01*
G75*
G02*
X118215000Y-59400000I0J-200000D01*
G01*
X118215000Y-59800000D01*
G75*
G02*
X118015000Y-60000000I-200000J0D01*
G01*
G37*
%TD.AperFunction*%
%TO.P,U2,2*%
%TO.N,GND*%
%TA.AperFunction,SMDPad,CuDef*%
G36*
G01*
X118015000Y-61450000D02*
X117515000Y-61450000D01*
G75*
G02*
X117315000Y-61250000I0J200000D01*
G01*
X117315000Y-60850000D01*
G75*
G02*
X117515000Y-60650000I200000J0D01*
G01*
X118015000Y-60650000D01*
G75*
G02*
X118215000Y-60850000I0J-200000D01*
G01*
X118215000Y-61250000D01*
G75*
G02*
X118015000Y-61450000I-200000J0D01*
G01*
G37*
%TD.AperFunction*%
%TO.P,U2,4*%
%TO.N,+3V3*%
%TA.AperFunction,SMDPad,CuDef*%
G36*
G01*
X116165000Y-60000000D02*
X115665000Y-60000000D01*
G75*
G02*
X115465000Y-59800000I0J200000D01*
G01*
X115465000Y-59400000D01*
G75*
G02*
X115665000Y-59200000I200000J0D01*
G01*
X116165000Y-59200000D01*
G75*
G02*
X116365000Y-59400000I0J-200000D01*
G01*
X116365000Y-59800000D01*
G75*
G02*
X116165000Y-60000000I-200000J0D01*
G01*
G37*
%TD.AperFunction*%
%TO.P,U2,1*%
%TO.N,Net-(U2-Pad1)*%
%TA.AperFunction,SMDPad,CuDef*%
G36*
G01*
X116165000Y-61450000D02*
X115665000Y-61450000D01*
G75*
G02*
X115465000Y-61250000I0J200000D01*
G01*
X115465000Y-60850000D01*
G75*
G02*
X115665000Y-60650000I200000J0D01*
G01*
X116165000Y-60650000D01*
G75*
G02*
X116365000Y-60850000I0J-200000D01*
G01*
X116365000Y-61250000D01*
G75*
G02*
X116165000Y-61450000I-200000J0D01*
G01*
G37*
%TD.AperFunction*%
%TD*%
D11*
%TO.P,U1,5*%
%TO.N,+1V2*%
X117983000Y-47879000D03*
%TO.P,U1,4*%
%TO.N,Net-(U1-Pad4)*%
X117983000Y-49179000D03*
%TO.P,U1,2*%
%TO.N,GND*%
X116083000Y-48529000D03*
%TO.P,U1,3*%
%TO.N,+2V5*%
X116083000Y-49179000D03*
%TO.P,U1,1*%
%TO.N,+3V3*%
X116083000Y-47879000D03*
%TD*%
D12*
%TO.P,J2,8*%
%TO.N,CDONE*%
X125349000Y-66675000D03*
%TO.P,J2,7*%
%TO.N,CRESET*%
X125349000Y-64135000D03*
%TO.P,J2,6*%
%TO.N,CS0*%
X125349000Y-61595000D03*
%TO.P,J2,5*%
%TO.N,MOSI*%
X125349000Y-59055000D03*
%TO.P,J2,4*%
%TO.N,MISO*%
X125349000Y-56515000D03*
%TO.P,J2,3*%
%TO.N,SCK*%
X125349000Y-53975000D03*
%TO.P,J2,2*%
%TO.N,+3V3*%
X125349000Y-51435000D03*
D13*
%TO.P,J2,1*%
%TO.N,GND*%
X125349000Y-48895000D03*
%TD*%
D12*
%TO.P,J1,8*%
%TO.N,Net-(J1-Pad8)*%
X112649000Y-66675000D03*
%TO.P,J1,7*%
%TO.N,Net-(J1-Pad7)*%
X112649000Y-64135000D03*
%TO.P,J1,6*%
%TO.N,Net-(J1-Pad6)*%
X112649000Y-61595000D03*
%TO.P,J1,5*%
%TO.N,Net-(J1-Pad5)*%
X112649000Y-59055000D03*
%TO.P,J1,4*%
%TO.N,Net-(J1-Pad4)*%
X112649000Y-56515000D03*
%TO.P,J1,3*%
%TO.N,Net-(J1-Pad3)*%
X112649000Y-53975000D03*
%TO.P,J1,2*%
%TO.N,+3V3*%
X112649000Y-51435000D03*
D13*
%TO.P,J1,1*%
%TO.N,GND*%
X112649000Y-48895000D03*
%TD*%
D14*
%TO.P,D1,3*%
%TO.N,GND*%
X121920000Y-48895000D03*
%TO.P,D1,2*%
%TO.N,+2V5*%
X119920000Y-49845000D03*
%TO.P,D1,1*%
%TO.N,+3V3*%
X119920000Y-47945000D03*
%TD*%
D15*
%TO.N,GND*%
X116840000Y-50673000D03*
X116967000Y-48514000D03*
X121031000Y-48895000D03*
X118237000Y-67564000D03*
X117729000Y-61849000D03*
D16*
X118534000Y-54570000D03*
X122174000Y-52197000D03*
D15*
%TO.N,+3V3*%
X117983000Y-66294000D03*
X121474000Y-64327000D03*
X116604500Y-58160124D03*
X115663765Y-58694436D03*
X114554000Y-52312000D03*
X114554000Y-54356000D03*
%TO.N,+2V5*%
X119888000Y-49022000D03*
X116967000Y-49276000D03*
%TO.N,Net-(J1-Pad8)*%
X115316000Y-52070000D03*
%TO.N,CDONE*%
X123063000Y-62738000D03*
X117348008Y-58674000D03*
%TO.N,CRESET*%
X122936000Y-61214000D03*
X117221000Y-57912000D03*
%TO.N,CS0*%
X122920747Y-60091326D03*
X119284000Y-60102000D03*
%TO.N,MOSI*%
X122936000Y-59054992D03*
X118275990Y-58202495D03*
%TO.N,SCK*%
X122936000Y-57785000D03*
X119889988Y-58420000D03*
%TD*%
D17*
%TO.N,GND*%
X118784000Y-54320000D02*
X118534000Y-54570000D01*
X120971500Y-54320000D02*
X118784000Y-54320000D01*
X117784000Y-53820000D02*
X118534000Y-54570000D01*
X116096500Y-53820000D02*
X117784000Y-53820000D01*
D18*
X117648000Y-50673000D02*
X116840000Y-50673000D01*
X116083000Y-48529000D02*
X116952000Y-48529000D01*
X116952000Y-48529000D02*
X116967000Y-48514000D01*
X121920000Y-48895000D02*
X121031000Y-48895000D01*
D19*
X116524000Y-67564000D02*
X118237000Y-67564000D01*
X117765000Y-61050000D02*
X117765000Y-61813000D01*
X117765000Y-61813000D02*
X117729000Y-61849000D01*
D18*
X116159000Y-50673000D02*
X116032000Y-50800000D01*
X116840000Y-50673000D02*
X116159000Y-50673000D01*
X122093000Y-52116000D02*
X122174000Y-52197000D01*
X122093000Y-51181000D02*
X122093000Y-52116000D01*
%TO.N,+3V3*%
X119920000Y-47945000D02*
X119700000Y-47945000D01*
D17*
X120284000Y-57007500D02*
X120284000Y-56500000D01*
X120464000Y-56320000D02*
X120971500Y-56320000D01*
X120284000Y-56500000D02*
X120464000Y-56320000D01*
D19*
X125349000Y-51435000D02*
X124968000Y-51435000D01*
D17*
X116524000Y-66294000D02*
X117983000Y-66294000D01*
D19*
X121474000Y-63754000D02*
X121474000Y-64327000D01*
X121474000Y-64327000D02*
X121474000Y-65024000D01*
X119920000Y-47945000D02*
X122621000Y-47945000D01*
X123063000Y-48387000D02*
X123063000Y-51181000D01*
X122621000Y-47945000D02*
X123063000Y-48387000D01*
D18*
X115663765Y-59348765D02*
X115915000Y-59600000D01*
X115663765Y-58694436D02*
X115663765Y-59348765D01*
D19*
X121734000Y-56320000D02*
X120971500Y-56320000D01*
X123063000Y-51181000D02*
X123063000Y-54991000D01*
X123063000Y-54991000D02*
X121734000Y-56320000D01*
X125095000Y-51181000D02*
X123063000Y-51181000D01*
X125349000Y-51435000D02*
X125095000Y-51181000D01*
D18*
X116604500Y-58160124D02*
X116604500Y-57776658D01*
X116784000Y-57597158D02*
X116784000Y-57007500D01*
X116604500Y-57776658D02*
X116784000Y-57597158D01*
D19*
X112649000Y-51435000D02*
X113411000Y-51435000D01*
X114046000Y-50800000D02*
X115062000Y-50800000D01*
X113411000Y-51435000D02*
X114046000Y-50800000D01*
D18*
X114590000Y-54320000D02*
X114554000Y-54356000D01*
X116096500Y-54320000D02*
X114590000Y-54320000D01*
D19*
X116083000Y-47879000D02*
X115316000Y-47879000D01*
X115062000Y-48133000D02*
X115062000Y-50800000D01*
X115316000Y-47879000D02*
X115062000Y-48133000D01*
D18*
X114554000Y-51943000D02*
X114554000Y-52312000D01*
X115062000Y-51435000D02*
X114554000Y-51943000D01*
X115062000Y-50800000D02*
X115062000Y-51435000D01*
D19*
X116083000Y-47879000D02*
X116083000Y-47874000D01*
X119374599Y-47399599D02*
X119920000Y-47945000D01*
X116557401Y-47399599D02*
X119374599Y-47399599D01*
X116083000Y-47874000D02*
X116557401Y-47399599D01*
D18*
X118618000Y-51435000D02*
X115062000Y-51435000D01*
X118784000Y-52132500D02*
X118784000Y-51601000D01*
X118784000Y-51601000D02*
X118618000Y-51435000D01*
X120426500Y-57007500D02*
X121204000Y-57785000D01*
X120284000Y-57007500D02*
X120426500Y-57007500D01*
X121204000Y-57785000D02*
X121204000Y-58928000D01*
X121204000Y-60048000D02*
X121181000Y-60071000D01*
X121204000Y-58928000D02*
X121204000Y-60048000D01*
X121181000Y-61191000D02*
X121204000Y-61214000D01*
X121181000Y-60071000D02*
X121181000Y-61191000D01*
X121204000Y-61214000D02*
X121204000Y-62357000D01*
X121204000Y-63484000D02*
X121474000Y-63754000D01*
X121204000Y-62357000D02*
X121204000Y-63484000D01*
X116840000Y-60525000D02*
X115915000Y-59600000D01*
X116840000Y-61722000D02*
X116840000Y-60525000D01*
X116459000Y-62103000D02*
X116840000Y-61722000D01*
X114808000Y-65151000D02*
X114808000Y-62992000D01*
X116524000Y-66294000D02*
X115951000Y-66294000D01*
X115951000Y-66294000D02*
X114808000Y-65151000D01*
X114808000Y-62992000D02*
X115697000Y-62103000D01*
X115697000Y-62103000D02*
X116459000Y-62103000D01*
%TO.N,+1V2*%
X120284000Y-52132500D02*
X120284000Y-51695000D01*
D19*
X117983000Y-47879000D02*
X118491000Y-47879000D01*
X118618000Y-48006000D02*
X118618000Y-50673000D01*
X118491000Y-47879000D02*
X118618000Y-48006000D01*
X118618000Y-50673000D02*
X119761000Y-50673000D01*
X120284000Y-51196000D02*
X120284000Y-52132500D01*
X119761000Y-50673000D02*
X120284000Y-51196000D01*
D17*
%TO.N,+2V5*%
X119920000Y-49845000D02*
X120203000Y-49845000D01*
X120971500Y-50613500D02*
X120971500Y-52820000D01*
X120203000Y-49845000D02*
X120971500Y-50613500D01*
D19*
X119920000Y-49845000D02*
X119920000Y-49054000D01*
X119920000Y-49054000D02*
X119888000Y-49022000D01*
X116180000Y-49276000D02*
X116083000Y-49179000D01*
X116967000Y-49276000D02*
X116180000Y-49276000D01*
D18*
%TO.N,Net-(J1-Pad8)*%
X116721500Y-52070000D02*
X116784000Y-52132500D01*
X115316000Y-52070000D02*
X116721500Y-52070000D01*
%TO.N,Net-(J1-Pad7)*%
X115693098Y-55820000D02*
X115138220Y-56374878D01*
X115138220Y-61645780D02*
X112649000Y-64135000D01*
X115138220Y-56374878D02*
X115138220Y-61645780D01*
X116096500Y-55820000D02*
X115693098Y-55820000D01*
%TO.N,Net-(J1-Pad6)*%
X116096500Y-55320000D02*
X115690188Y-55320000D01*
X114782610Y-56227578D02*
X114782610Y-59461390D01*
X114782610Y-59461390D02*
X112649000Y-61595000D01*
X115690188Y-55320000D02*
X114782610Y-56227578D01*
%TO.N,Net-(J1-Pad5)*%
X112649000Y-58674000D02*
X112649000Y-59055000D01*
X116096500Y-54820000D02*
X115687280Y-54820000D01*
X114427000Y-56080280D02*
X114427000Y-57277000D01*
X115687280Y-54820000D02*
X114427000Y-56080280D01*
X114427000Y-57277000D02*
X112649000Y-59055000D01*
%TO.N,Net-(J1-Pad4)*%
X112649000Y-56388000D02*
X112649000Y-56515000D01*
X116096500Y-53320000D02*
X115717000Y-53320000D01*
X114447000Y-53320000D02*
X116096500Y-53320000D01*
X114046000Y-53721000D02*
X114447000Y-53320000D01*
X112649000Y-56515000D02*
X114046000Y-55118000D01*
X114046000Y-55118000D02*
X114046000Y-53721000D01*
%TO.N,Net-(J1-Pad3)*%
X113804000Y-52820000D02*
X112649000Y-53975000D01*
X116096500Y-52820000D02*
X113804000Y-52820000D01*
D17*
%TO.N,CDONE*%
X122555000Y-62738000D02*
X122174000Y-62357000D01*
X123063000Y-62738000D02*
X122555000Y-62738000D01*
X117784000Y-58238008D02*
X117348008Y-58674000D01*
X117784000Y-57007500D02*
X117784000Y-58238008D01*
%TO.N,CRESET*%
X122174000Y-61214000D02*
X122936000Y-61214000D01*
X117284000Y-57849000D02*
X117221000Y-57912000D01*
X117284000Y-57007500D02*
X117284000Y-57849000D01*
%TO.N,CS0*%
X122900421Y-60071000D02*
X122920747Y-60091326D01*
X122151000Y-60071000D02*
X122900421Y-60071000D01*
D18*
X119284000Y-62961000D02*
X119284000Y-60102000D01*
X118491000Y-63754000D02*
X119284000Y-62961000D01*
X119284000Y-57007500D02*
X119284000Y-60102000D01*
X116524000Y-63754000D02*
X118491000Y-63754000D01*
%TO.N,MOSI*%
X122449000Y-67564000D02*
X121474000Y-67564000D01*
X123952000Y-66061000D02*
X122449000Y-67564000D01*
X125349000Y-59055000D02*
X123952000Y-60452000D01*
X123952000Y-60452000D02*
X123952000Y-66061000D01*
D17*
X122174000Y-58928000D02*
X122809008Y-58928000D01*
X122809008Y-58928000D02*
X122936000Y-59054992D01*
X118284000Y-57007500D02*
X118284000Y-58194485D01*
X118284000Y-58194485D02*
X118275990Y-58202495D01*
D18*
%TO.N,MISO*%
X123571000Y-58293000D02*
X123571000Y-65786000D01*
X117499000Y-65024000D02*
X116524000Y-65024000D01*
X125349000Y-56515000D02*
X123571000Y-58293000D01*
X123571000Y-65786000D02*
X122428000Y-66929000D01*
X119404000Y-66929000D02*
X117499000Y-65024000D01*
X122428000Y-66929000D02*
X119404000Y-66929000D01*
X115189000Y-64664000D02*
X115549000Y-65024000D01*
X118775994Y-62072006D02*
X118110000Y-62738000D01*
X118110000Y-62738000D02*
X115697000Y-62738000D01*
X115697000Y-62738000D02*
X115189000Y-63246000D01*
X118784000Y-57007500D02*
X118784000Y-59977154D01*
X115549000Y-65024000D02*
X116524000Y-65024000D01*
X115189000Y-63246000D02*
X115189000Y-64664000D01*
X118784000Y-59977154D02*
X118775994Y-59985160D01*
X118775994Y-59985160D02*
X118775994Y-62072006D01*
D17*
%TO.N,SCK*%
X122174000Y-57150000D02*
X122174000Y-57785000D01*
X125349000Y-53975000D02*
X122174000Y-57150000D01*
X122174000Y-57785000D02*
X122936000Y-57785000D01*
D18*
X119784000Y-57445000D02*
X119784000Y-57007500D01*
X119888000Y-57549000D02*
X119784000Y-57445000D01*
X119888000Y-65683000D02*
X119888000Y-57549000D01*
X121474000Y-66294000D02*
X120499000Y-66294000D01*
X120499000Y-66294000D02*
X119888000Y-65683000D01*
%TO.N,CLK*%
X117765000Y-59600000D02*
X117268156Y-59600000D01*
X116096500Y-58428344D02*
X116096500Y-56320000D01*
X117268156Y-59600000D02*
X116096500Y-58428344D01*
%TD*%
M02*
