%TF.GenerationSoftware,KiCad,Pcbnew,(5.1.6)-1*%
%TF.CreationDate,2020-10-27T18:31:36-05:00*%
%TF.ProjectId,ice30lp384_dev_board,69636533-306c-4703-9338-345f6465765f,rev?*%
%TF.SameCoordinates,Original*%
%TF.FileFunction,Paste,Top*%
%TF.FilePolarity,Positive*%
%FSLAX46Y46*%
G04 Gerber Fmt 4.6, Leading zero omitted, Abs format (unit mm)*
G04 Created by KiCad (PCBNEW (5.1.6)-1) date 2020-10-27 18:31:36*
%MOMM*%
%LPD*%
G01*
G04 APERTURE LIST*
%ADD10R,0.650000X0.400000*%
%ADD11R,0.900000X0.800000*%
G04 APERTURE END LIST*
%TO.C,C3*%
G36*
G01*
X115737000Y-50972500D02*
X115737000Y-50627500D01*
G75*
G02*
X115884500Y-50480000I147500J0D01*
G01*
X116179500Y-50480000D01*
G75*
G02*
X116327000Y-50627500I0J-147500D01*
G01*
X116327000Y-50972500D01*
G75*
G02*
X116179500Y-51120000I-147500J0D01*
G01*
X115884500Y-51120000D01*
G75*
G02*
X115737000Y-50972500I0J147500D01*
G01*
G37*
G36*
G01*
X114767000Y-50972500D02*
X114767000Y-50627500D01*
G75*
G02*
X114914500Y-50480000I147500J0D01*
G01*
X115209500Y-50480000D01*
G75*
G02*
X115357000Y-50627500I0J-147500D01*
G01*
X115357000Y-50972500D01*
G75*
G02*
X115209500Y-51120000I-147500J0D01*
G01*
X114914500Y-51120000D01*
G75*
G02*
X114767000Y-50972500I0J147500D01*
G01*
G37*
%TD*%
%TO.C,C2*%
G36*
G01*
X117943000Y-50500500D02*
X117943000Y-50845500D01*
G75*
G02*
X117795500Y-50993000I-147500J0D01*
G01*
X117500500Y-50993000D01*
G75*
G02*
X117353000Y-50845500I0J147500D01*
G01*
X117353000Y-50500500D01*
G75*
G02*
X117500500Y-50353000I147500J0D01*
G01*
X117795500Y-50353000D01*
G75*
G02*
X117943000Y-50500500I0J-147500D01*
G01*
G37*
G36*
G01*
X118913000Y-50500500D02*
X118913000Y-50845500D01*
G75*
G02*
X118765500Y-50993000I-147500J0D01*
G01*
X118470500Y-50993000D01*
G75*
G02*
X118323000Y-50845500I0J147500D01*
G01*
X118323000Y-50500500D01*
G75*
G02*
X118470500Y-50353000I147500J0D01*
G01*
X118765500Y-50353000D01*
G75*
G02*
X118913000Y-50500500I0J-147500D01*
G01*
G37*
%TD*%
%TO.C,C1*%
G36*
G01*
X122388000Y-51008500D02*
X122388000Y-51353500D01*
G75*
G02*
X122240500Y-51501000I-147500J0D01*
G01*
X121945500Y-51501000D01*
G75*
G02*
X121798000Y-51353500I0J147500D01*
G01*
X121798000Y-51008500D01*
G75*
G02*
X121945500Y-50861000I147500J0D01*
G01*
X122240500Y-50861000D01*
G75*
G02*
X122388000Y-51008500I0J-147500D01*
G01*
G37*
G36*
G01*
X123358000Y-51008500D02*
X123358000Y-51353500D01*
G75*
G02*
X123210500Y-51501000I-147500J0D01*
G01*
X122915500Y-51501000D01*
G75*
G02*
X122768000Y-51353500I0J147500D01*
G01*
X122768000Y-51008500D01*
G75*
G02*
X122915500Y-50861000I147500J0D01*
G01*
X123210500Y-50861000D01*
G75*
G02*
X123358000Y-51008500I0J-147500D01*
G01*
G37*
%TD*%
%TO.C,R5*%
G36*
G01*
X121879000Y-57957500D02*
X121879000Y-57612500D01*
G75*
G02*
X122026500Y-57465000I147500J0D01*
G01*
X122321500Y-57465000D01*
G75*
G02*
X122469000Y-57612500I0J-147500D01*
G01*
X122469000Y-57957500D01*
G75*
G02*
X122321500Y-58105000I-147500J0D01*
G01*
X122026500Y-58105000D01*
G75*
G02*
X121879000Y-57957500I0J147500D01*
G01*
G37*
G36*
G01*
X120909000Y-57957500D02*
X120909000Y-57612500D01*
G75*
G02*
X121056500Y-57465000I147500J0D01*
G01*
X121351500Y-57465000D01*
G75*
G02*
X121499000Y-57612500I0J-147500D01*
G01*
X121499000Y-57957500D01*
G75*
G02*
X121351500Y-58105000I-147500J0D01*
G01*
X121056500Y-58105000D01*
G75*
G02*
X120909000Y-57957500I0J147500D01*
G01*
G37*
%TD*%
%TO.C,R4*%
G36*
G01*
X121879000Y-59100500D02*
X121879000Y-58755500D01*
G75*
G02*
X122026500Y-58608000I147500J0D01*
G01*
X122321500Y-58608000D01*
G75*
G02*
X122469000Y-58755500I0J-147500D01*
G01*
X122469000Y-59100500D01*
G75*
G02*
X122321500Y-59248000I-147500J0D01*
G01*
X122026500Y-59248000D01*
G75*
G02*
X121879000Y-59100500I0J147500D01*
G01*
G37*
G36*
G01*
X120909000Y-59100500D02*
X120909000Y-58755500D01*
G75*
G02*
X121056500Y-58608000I147500J0D01*
G01*
X121351500Y-58608000D01*
G75*
G02*
X121499000Y-58755500I0J-147500D01*
G01*
X121499000Y-59100500D01*
G75*
G02*
X121351500Y-59248000I-147500J0D01*
G01*
X121056500Y-59248000D01*
G75*
G02*
X120909000Y-59100500I0J147500D01*
G01*
G37*
%TD*%
%TO.C,R3*%
G36*
G01*
X121856000Y-60243500D02*
X121856000Y-59898500D01*
G75*
G02*
X122003500Y-59751000I147500J0D01*
G01*
X122298500Y-59751000D01*
G75*
G02*
X122446000Y-59898500I0J-147500D01*
G01*
X122446000Y-60243500D01*
G75*
G02*
X122298500Y-60391000I-147500J0D01*
G01*
X122003500Y-60391000D01*
G75*
G02*
X121856000Y-60243500I0J147500D01*
G01*
G37*
G36*
G01*
X120886000Y-60243500D02*
X120886000Y-59898500D01*
G75*
G02*
X121033500Y-59751000I147500J0D01*
G01*
X121328500Y-59751000D01*
G75*
G02*
X121476000Y-59898500I0J-147500D01*
G01*
X121476000Y-60243500D01*
G75*
G02*
X121328500Y-60391000I-147500J0D01*
G01*
X121033500Y-60391000D01*
G75*
G02*
X120886000Y-60243500I0J147500D01*
G01*
G37*
%TD*%
%TO.C,R2*%
G36*
G01*
X121879000Y-62529500D02*
X121879000Y-62184500D01*
G75*
G02*
X122026500Y-62037000I147500J0D01*
G01*
X122321500Y-62037000D01*
G75*
G02*
X122469000Y-62184500I0J-147500D01*
G01*
X122469000Y-62529500D01*
G75*
G02*
X122321500Y-62677000I-147500J0D01*
G01*
X122026500Y-62677000D01*
G75*
G02*
X121879000Y-62529500I0J147500D01*
G01*
G37*
G36*
G01*
X120909000Y-62529500D02*
X120909000Y-62184500D01*
G75*
G02*
X121056500Y-62037000I147500J0D01*
G01*
X121351500Y-62037000D01*
G75*
G02*
X121499000Y-62184500I0J-147500D01*
G01*
X121499000Y-62529500D01*
G75*
G02*
X121351500Y-62677000I-147500J0D01*
G01*
X121056500Y-62677000D01*
G75*
G02*
X120909000Y-62529500I0J147500D01*
G01*
G37*
%TD*%
%TO.C,R1*%
G36*
G01*
X121879000Y-61386500D02*
X121879000Y-61041500D01*
G75*
G02*
X122026500Y-60894000I147500J0D01*
G01*
X122321500Y-60894000D01*
G75*
G02*
X122469000Y-61041500I0J-147500D01*
G01*
X122469000Y-61386500D01*
G75*
G02*
X122321500Y-61534000I-147500J0D01*
G01*
X122026500Y-61534000D01*
G75*
G02*
X121879000Y-61386500I0J147500D01*
G01*
G37*
G36*
G01*
X120909000Y-61386500D02*
X120909000Y-61041500D01*
G75*
G02*
X121056500Y-60894000I147500J0D01*
G01*
X121351500Y-60894000D01*
G75*
G02*
X121499000Y-61041500I0J-147500D01*
G01*
X121499000Y-61386500D01*
G75*
G02*
X121351500Y-61534000I-147500J0D01*
G01*
X121056500Y-61534000D01*
G75*
G02*
X120909000Y-61386500I0J147500D01*
G01*
G37*
%TD*%
%TO.C,U4*%
G36*
G01*
X120499000Y-63904000D02*
X120499000Y-63604000D01*
G75*
G02*
X120649000Y-63454000I150000J0D01*
G01*
X122299000Y-63454000D01*
G75*
G02*
X122449000Y-63604000I0J-150000D01*
G01*
X122449000Y-63904000D01*
G75*
G02*
X122299000Y-64054000I-150000J0D01*
G01*
X120649000Y-64054000D01*
G75*
G02*
X120499000Y-63904000I0J150000D01*
G01*
G37*
G36*
G01*
X120499000Y-65174000D02*
X120499000Y-64874000D01*
G75*
G02*
X120649000Y-64724000I150000J0D01*
G01*
X122299000Y-64724000D01*
G75*
G02*
X122449000Y-64874000I0J-150000D01*
G01*
X122449000Y-65174000D01*
G75*
G02*
X122299000Y-65324000I-150000J0D01*
G01*
X120649000Y-65324000D01*
G75*
G02*
X120499000Y-65174000I0J150000D01*
G01*
G37*
G36*
G01*
X120499000Y-66444000D02*
X120499000Y-66144000D01*
G75*
G02*
X120649000Y-65994000I150000J0D01*
G01*
X122299000Y-65994000D01*
G75*
G02*
X122449000Y-66144000I0J-150000D01*
G01*
X122449000Y-66444000D01*
G75*
G02*
X122299000Y-66594000I-150000J0D01*
G01*
X120649000Y-66594000D01*
G75*
G02*
X120499000Y-66444000I0J150000D01*
G01*
G37*
G36*
G01*
X120499000Y-67714000D02*
X120499000Y-67414000D01*
G75*
G02*
X120649000Y-67264000I150000J0D01*
G01*
X122299000Y-67264000D01*
G75*
G02*
X122449000Y-67414000I0J-150000D01*
G01*
X122449000Y-67714000D01*
G75*
G02*
X122299000Y-67864000I-150000J0D01*
G01*
X120649000Y-67864000D01*
G75*
G02*
X120499000Y-67714000I0J150000D01*
G01*
G37*
G36*
G01*
X115549000Y-67714000D02*
X115549000Y-67414000D01*
G75*
G02*
X115699000Y-67264000I150000J0D01*
G01*
X117349000Y-67264000D01*
G75*
G02*
X117499000Y-67414000I0J-150000D01*
G01*
X117499000Y-67714000D01*
G75*
G02*
X117349000Y-67864000I-150000J0D01*
G01*
X115699000Y-67864000D01*
G75*
G02*
X115549000Y-67714000I0J150000D01*
G01*
G37*
G36*
G01*
X115549000Y-66444000D02*
X115549000Y-66144000D01*
G75*
G02*
X115699000Y-65994000I150000J0D01*
G01*
X117349000Y-65994000D01*
G75*
G02*
X117499000Y-66144000I0J-150000D01*
G01*
X117499000Y-66444000D01*
G75*
G02*
X117349000Y-66594000I-150000J0D01*
G01*
X115699000Y-66594000D01*
G75*
G02*
X115549000Y-66444000I0J150000D01*
G01*
G37*
G36*
G01*
X115549000Y-65174000D02*
X115549000Y-64874000D01*
G75*
G02*
X115699000Y-64724000I150000J0D01*
G01*
X117349000Y-64724000D01*
G75*
G02*
X117499000Y-64874000I0J-150000D01*
G01*
X117499000Y-65174000D01*
G75*
G02*
X117349000Y-65324000I-150000J0D01*
G01*
X115699000Y-65324000D01*
G75*
G02*
X115549000Y-65174000I0J150000D01*
G01*
G37*
G36*
G01*
X115549000Y-63904000D02*
X115549000Y-63604000D01*
G75*
G02*
X115699000Y-63454000I150000J0D01*
G01*
X117349000Y-63454000D01*
G75*
G02*
X117499000Y-63604000I0J-150000D01*
G01*
X117499000Y-63904000D01*
G75*
G02*
X117349000Y-64054000I-150000J0D01*
G01*
X115699000Y-64054000D01*
G75*
G02*
X115549000Y-63904000I0J150000D01*
G01*
G37*
%TD*%
%TO.C,U3*%
G36*
G01*
X119149000Y-55807500D02*
X119149000Y-55392500D01*
G75*
G02*
X119356500Y-55185000I207500J0D01*
G01*
X119771500Y-55185000D01*
G75*
G02*
X119979000Y-55392500I0J-207500D01*
G01*
X119979000Y-55807500D01*
G75*
G02*
X119771500Y-56015000I-207500J0D01*
G01*
X119356500Y-56015000D01*
G75*
G02*
X119149000Y-55807500I0J207500D01*
G01*
G37*
G36*
G01*
X119149000Y-54777500D02*
X119149000Y-54362500D01*
G75*
G02*
X119356500Y-54155000I207500J0D01*
G01*
X119771500Y-54155000D01*
G75*
G02*
X119979000Y-54362500I0J-207500D01*
G01*
X119979000Y-54777500D01*
G75*
G02*
X119771500Y-54985000I-207500J0D01*
G01*
X119356500Y-54985000D01*
G75*
G02*
X119149000Y-54777500I0J207500D01*
G01*
G37*
G36*
G01*
X119149000Y-53747500D02*
X119149000Y-53332500D01*
G75*
G02*
X119356500Y-53125000I207500J0D01*
G01*
X119771500Y-53125000D01*
G75*
G02*
X119979000Y-53332500I0J-207500D01*
G01*
X119979000Y-53747500D01*
G75*
G02*
X119771500Y-53955000I-207500J0D01*
G01*
X119356500Y-53955000D01*
G75*
G02*
X119149000Y-53747500I0J207500D01*
G01*
G37*
G36*
G01*
X118119000Y-55807500D02*
X118119000Y-55392500D01*
G75*
G02*
X118326500Y-55185000I207500J0D01*
G01*
X118741500Y-55185000D01*
G75*
G02*
X118949000Y-55392500I0J-207500D01*
G01*
X118949000Y-55807500D01*
G75*
G02*
X118741500Y-56015000I-207500J0D01*
G01*
X118326500Y-56015000D01*
G75*
G02*
X118119000Y-55807500I0J207500D01*
G01*
G37*
G36*
G01*
X118119000Y-54777500D02*
X118119000Y-54362500D01*
G75*
G02*
X118326500Y-54155000I207500J0D01*
G01*
X118741500Y-54155000D01*
G75*
G02*
X118949000Y-54362500I0J-207500D01*
G01*
X118949000Y-54777500D01*
G75*
G02*
X118741500Y-54985000I-207500J0D01*
G01*
X118326500Y-54985000D01*
G75*
G02*
X118119000Y-54777500I0J207500D01*
G01*
G37*
G36*
G01*
X118119000Y-53747500D02*
X118119000Y-53332500D01*
G75*
G02*
X118326500Y-53125000I207500J0D01*
G01*
X118741500Y-53125000D01*
G75*
G02*
X118949000Y-53332500I0J-207500D01*
G01*
X118949000Y-53747500D01*
G75*
G02*
X118741500Y-53955000I-207500J0D01*
G01*
X118326500Y-53955000D01*
G75*
G02*
X118119000Y-53747500I0J207500D01*
G01*
G37*
G36*
G01*
X117089000Y-55807500D02*
X117089000Y-55392500D01*
G75*
G02*
X117296500Y-55185000I207500J0D01*
G01*
X117711500Y-55185000D01*
G75*
G02*
X117919000Y-55392500I0J-207500D01*
G01*
X117919000Y-55807500D01*
G75*
G02*
X117711500Y-56015000I-207500J0D01*
G01*
X117296500Y-56015000D01*
G75*
G02*
X117089000Y-55807500I0J207500D01*
G01*
G37*
G36*
G01*
X117089000Y-54777500D02*
X117089000Y-54362500D01*
G75*
G02*
X117296500Y-54155000I207500J0D01*
G01*
X117711500Y-54155000D01*
G75*
G02*
X117919000Y-54362500I0J-207500D01*
G01*
X117919000Y-54777500D01*
G75*
G02*
X117711500Y-54985000I-207500J0D01*
G01*
X117296500Y-54985000D01*
G75*
G02*
X117089000Y-54777500I0J207500D01*
G01*
G37*
G36*
G01*
X117089000Y-53747500D02*
X117089000Y-53332500D01*
G75*
G02*
X117296500Y-53125000I207500J0D01*
G01*
X117711500Y-53125000D01*
G75*
G02*
X117919000Y-53332500I0J-207500D01*
G01*
X117919000Y-53747500D01*
G75*
G02*
X117711500Y-53955000I-207500J0D01*
G01*
X117296500Y-53955000D01*
G75*
G02*
X117089000Y-53747500I0J207500D01*
G01*
G37*
G36*
G01*
X116659000Y-52507500D02*
X116659000Y-51757500D01*
G75*
G02*
X116721500Y-51695000I62500J0D01*
G01*
X116846500Y-51695000D01*
G75*
G02*
X116909000Y-51757500I0J-62500D01*
G01*
X116909000Y-52507500D01*
G75*
G02*
X116846500Y-52570000I-62500J0D01*
G01*
X116721500Y-52570000D01*
G75*
G02*
X116659000Y-52507500I0J62500D01*
G01*
G37*
G36*
G01*
X117159000Y-52507500D02*
X117159000Y-51757500D01*
G75*
G02*
X117221500Y-51695000I62500J0D01*
G01*
X117346500Y-51695000D01*
G75*
G02*
X117409000Y-51757500I0J-62500D01*
G01*
X117409000Y-52507500D01*
G75*
G02*
X117346500Y-52570000I-62500J0D01*
G01*
X117221500Y-52570000D01*
G75*
G02*
X117159000Y-52507500I0J62500D01*
G01*
G37*
G36*
G01*
X117659000Y-52507500D02*
X117659000Y-51757500D01*
G75*
G02*
X117721500Y-51695000I62500J0D01*
G01*
X117846500Y-51695000D01*
G75*
G02*
X117909000Y-51757500I0J-62500D01*
G01*
X117909000Y-52507500D01*
G75*
G02*
X117846500Y-52570000I-62500J0D01*
G01*
X117721500Y-52570000D01*
G75*
G02*
X117659000Y-52507500I0J62500D01*
G01*
G37*
G36*
G01*
X118159000Y-52507500D02*
X118159000Y-51757500D01*
G75*
G02*
X118221500Y-51695000I62500J0D01*
G01*
X118346500Y-51695000D01*
G75*
G02*
X118409000Y-51757500I0J-62500D01*
G01*
X118409000Y-52507500D01*
G75*
G02*
X118346500Y-52570000I-62500J0D01*
G01*
X118221500Y-52570000D01*
G75*
G02*
X118159000Y-52507500I0J62500D01*
G01*
G37*
G36*
G01*
X118659000Y-52507500D02*
X118659000Y-51757500D01*
G75*
G02*
X118721500Y-51695000I62500J0D01*
G01*
X118846500Y-51695000D01*
G75*
G02*
X118909000Y-51757500I0J-62500D01*
G01*
X118909000Y-52507500D01*
G75*
G02*
X118846500Y-52570000I-62500J0D01*
G01*
X118721500Y-52570000D01*
G75*
G02*
X118659000Y-52507500I0J62500D01*
G01*
G37*
G36*
G01*
X119159000Y-52507500D02*
X119159000Y-51757500D01*
G75*
G02*
X119221500Y-51695000I62500J0D01*
G01*
X119346500Y-51695000D01*
G75*
G02*
X119409000Y-51757500I0J-62500D01*
G01*
X119409000Y-52507500D01*
G75*
G02*
X119346500Y-52570000I-62500J0D01*
G01*
X119221500Y-52570000D01*
G75*
G02*
X119159000Y-52507500I0J62500D01*
G01*
G37*
G36*
G01*
X119659000Y-52507500D02*
X119659000Y-51757500D01*
G75*
G02*
X119721500Y-51695000I62500J0D01*
G01*
X119846500Y-51695000D01*
G75*
G02*
X119909000Y-51757500I0J-62500D01*
G01*
X119909000Y-52507500D01*
G75*
G02*
X119846500Y-52570000I-62500J0D01*
G01*
X119721500Y-52570000D01*
G75*
G02*
X119659000Y-52507500I0J62500D01*
G01*
G37*
G36*
G01*
X120159000Y-52507500D02*
X120159000Y-51757500D01*
G75*
G02*
X120221500Y-51695000I62500J0D01*
G01*
X120346500Y-51695000D01*
G75*
G02*
X120409000Y-51757500I0J-62500D01*
G01*
X120409000Y-52507500D01*
G75*
G02*
X120346500Y-52570000I-62500J0D01*
G01*
X120221500Y-52570000D01*
G75*
G02*
X120159000Y-52507500I0J62500D01*
G01*
G37*
G36*
G01*
X120534000Y-52882500D02*
X120534000Y-52757500D01*
G75*
G02*
X120596500Y-52695000I62500J0D01*
G01*
X121346500Y-52695000D01*
G75*
G02*
X121409000Y-52757500I0J-62500D01*
G01*
X121409000Y-52882500D01*
G75*
G02*
X121346500Y-52945000I-62500J0D01*
G01*
X120596500Y-52945000D01*
G75*
G02*
X120534000Y-52882500I0J62500D01*
G01*
G37*
G36*
G01*
X120534000Y-53382500D02*
X120534000Y-53257500D01*
G75*
G02*
X120596500Y-53195000I62500J0D01*
G01*
X121346500Y-53195000D01*
G75*
G02*
X121409000Y-53257500I0J-62500D01*
G01*
X121409000Y-53382500D01*
G75*
G02*
X121346500Y-53445000I-62500J0D01*
G01*
X120596500Y-53445000D01*
G75*
G02*
X120534000Y-53382500I0J62500D01*
G01*
G37*
G36*
G01*
X120534000Y-53882500D02*
X120534000Y-53757500D01*
G75*
G02*
X120596500Y-53695000I62500J0D01*
G01*
X121346500Y-53695000D01*
G75*
G02*
X121409000Y-53757500I0J-62500D01*
G01*
X121409000Y-53882500D01*
G75*
G02*
X121346500Y-53945000I-62500J0D01*
G01*
X120596500Y-53945000D01*
G75*
G02*
X120534000Y-53882500I0J62500D01*
G01*
G37*
G36*
G01*
X120534000Y-54382500D02*
X120534000Y-54257500D01*
G75*
G02*
X120596500Y-54195000I62500J0D01*
G01*
X121346500Y-54195000D01*
G75*
G02*
X121409000Y-54257500I0J-62500D01*
G01*
X121409000Y-54382500D01*
G75*
G02*
X121346500Y-54445000I-62500J0D01*
G01*
X120596500Y-54445000D01*
G75*
G02*
X120534000Y-54382500I0J62500D01*
G01*
G37*
G36*
G01*
X120534000Y-54882500D02*
X120534000Y-54757500D01*
G75*
G02*
X120596500Y-54695000I62500J0D01*
G01*
X121346500Y-54695000D01*
G75*
G02*
X121409000Y-54757500I0J-62500D01*
G01*
X121409000Y-54882500D01*
G75*
G02*
X121346500Y-54945000I-62500J0D01*
G01*
X120596500Y-54945000D01*
G75*
G02*
X120534000Y-54882500I0J62500D01*
G01*
G37*
G36*
G01*
X120534000Y-55382500D02*
X120534000Y-55257500D01*
G75*
G02*
X120596500Y-55195000I62500J0D01*
G01*
X121346500Y-55195000D01*
G75*
G02*
X121409000Y-55257500I0J-62500D01*
G01*
X121409000Y-55382500D01*
G75*
G02*
X121346500Y-55445000I-62500J0D01*
G01*
X120596500Y-55445000D01*
G75*
G02*
X120534000Y-55382500I0J62500D01*
G01*
G37*
G36*
G01*
X120534000Y-55882500D02*
X120534000Y-55757500D01*
G75*
G02*
X120596500Y-55695000I62500J0D01*
G01*
X121346500Y-55695000D01*
G75*
G02*
X121409000Y-55757500I0J-62500D01*
G01*
X121409000Y-55882500D01*
G75*
G02*
X121346500Y-55945000I-62500J0D01*
G01*
X120596500Y-55945000D01*
G75*
G02*
X120534000Y-55882500I0J62500D01*
G01*
G37*
G36*
G01*
X120534000Y-56382500D02*
X120534000Y-56257500D01*
G75*
G02*
X120596500Y-56195000I62500J0D01*
G01*
X121346500Y-56195000D01*
G75*
G02*
X121409000Y-56257500I0J-62500D01*
G01*
X121409000Y-56382500D01*
G75*
G02*
X121346500Y-56445000I-62500J0D01*
G01*
X120596500Y-56445000D01*
G75*
G02*
X120534000Y-56382500I0J62500D01*
G01*
G37*
G36*
G01*
X120159000Y-57382500D02*
X120159000Y-56632500D01*
G75*
G02*
X120221500Y-56570000I62500J0D01*
G01*
X120346500Y-56570000D01*
G75*
G02*
X120409000Y-56632500I0J-62500D01*
G01*
X120409000Y-57382500D01*
G75*
G02*
X120346500Y-57445000I-62500J0D01*
G01*
X120221500Y-57445000D01*
G75*
G02*
X120159000Y-57382500I0J62500D01*
G01*
G37*
G36*
G01*
X119659000Y-57382500D02*
X119659000Y-56632500D01*
G75*
G02*
X119721500Y-56570000I62500J0D01*
G01*
X119846500Y-56570000D01*
G75*
G02*
X119909000Y-56632500I0J-62500D01*
G01*
X119909000Y-57382500D01*
G75*
G02*
X119846500Y-57445000I-62500J0D01*
G01*
X119721500Y-57445000D01*
G75*
G02*
X119659000Y-57382500I0J62500D01*
G01*
G37*
G36*
G01*
X119159000Y-57382500D02*
X119159000Y-56632500D01*
G75*
G02*
X119221500Y-56570000I62500J0D01*
G01*
X119346500Y-56570000D01*
G75*
G02*
X119409000Y-56632500I0J-62500D01*
G01*
X119409000Y-57382500D01*
G75*
G02*
X119346500Y-57445000I-62500J0D01*
G01*
X119221500Y-57445000D01*
G75*
G02*
X119159000Y-57382500I0J62500D01*
G01*
G37*
G36*
G01*
X118659000Y-57382500D02*
X118659000Y-56632500D01*
G75*
G02*
X118721500Y-56570000I62500J0D01*
G01*
X118846500Y-56570000D01*
G75*
G02*
X118909000Y-56632500I0J-62500D01*
G01*
X118909000Y-57382500D01*
G75*
G02*
X118846500Y-57445000I-62500J0D01*
G01*
X118721500Y-57445000D01*
G75*
G02*
X118659000Y-57382500I0J62500D01*
G01*
G37*
G36*
G01*
X118159000Y-57382500D02*
X118159000Y-56632500D01*
G75*
G02*
X118221500Y-56570000I62500J0D01*
G01*
X118346500Y-56570000D01*
G75*
G02*
X118409000Y-56632500I0J-62500D01*
G01*
X118409000Y-57382500D01*
G75*
G02*
X118346500Y-57445000I-62500J0D01*
G01*
X118221500Y-57445000D01*
G75*
G02*
X118159000Y-57382500I0J62500D01*
G01*
G37*
G36*
G01*
X117659000Y-57382500D02*
X117659000Y-56632500D01*
G75*
G02*
X117721500Y-56570000I62500J0D01*
G01*
X117846500Y-56570000D01*
G75*
G02*
X117909000Y-56632500I0J-62500D01*
G01*
X117909000Y-57382500D01*
G75*
G02*
X117846500Y-57445000I-62500J0D01*
G01*
X117721500Y-57445000D01*
G75*
G02*
X117659000Y-57382500I0J62500D01*
G01*
G37*
G36*
G01*
X117159000Y-57382500D02*
X117159000Y-56632500D01*
G75*
G02*
X117221500Y-56570000I62500J0D01*
G01*
X117346500Y-56570000D01*
G75*
G02*
X117409000Y-56632500I0J-62500D01*
G01*
X117409000Y-57382500D01*
G75*
G02*
X117346500Y-57445000I-62500J0D01*
G01*
X117221500Y-57445000D01*
G75*
G02*
X117159000Y-57382500I0J62500D01*
G01*
G37*
G36*
G01*
X116659000Y-57382500D02*
X116659000Y-56632500D01*
G75*
G02*
X116721500Y-56570000I62500J0D01*
G01*
X116846500Y-56570000D01*
G75*
G02*
X116909000Y-56632500I0J-62500D01*
G01*
X116909000Y-57382500D01*
G75*
G02*
X116846500Y-57445000I-62500J0D01*
G01*
X116721500Y-57445000D01*
G75*
G02*
X116659000Y-57382500I0J62500D01*
G01*
G37*
G36*
G01*
X115659000Y-56382500D02*
X115659000Y-56257500D01*
G75*
G02*
X115721500Y-56195000I62500J0D01*
G01*
X116471500Y-56195000D01*
G75*
G02*
X116534000Y-56257500I0J-62500D01*
G01*
X116534000Y-56382500D01*
G75*
G02*
X116471500Y-56445000I-62500J0D01*
G01*
X115721500Y-56445000D01*
G75*
G02*
X115659000Y-56382500I0J62500D01*
G01*
G37*
G36*
G01*
X115659000Y-55882500D02*
X115659000Y-55757500D01*
G75*
G02*
X115721500Y-55695000I62500J0D01*
G01*
X116471500Y-55695000D01*
G75*
G02*
X116534000Y-55757500I0J-62500D01*
G01*
X116534000Y-55882500D01*
G75*
G02*
X116471500Y-55945000I-62500J0D01*
G01*
X115721500Y-55945000D01*
G75*
G02*
X115659000Y-55882500I0J62500D01*
G01*
G37*
G36*
G01*
X115659000Y-55382500D02*
X115659000Y-55257500D01*
G75*
G02*
X115721500Y-55195000I62500J0D01*
G01*
X116471500Y-55195000D01*
G75*
G02*
X116534000Y-55257500I0J-62500D01*
G01*
X116534000Y-55382500D01*
G75*
G02*
X116471500Y-55445000I-62500J0D01*
G01*
X115721500Y-55445000D01*
G75*
G02*
X115659000Y-55382500I0J62500D01*
G01*
G37*
G36*
G01*
X115659000Y-54882500D02*
X115659000Y-54757500D01*
G75*
G02*
X115721500Y-54695000I62500J0D01*
G01*
X116471500Y-54695000D01*
G75*
G02*
X116534000Y-54757500I0J-62500D01*
G01*
X116534000Y-54882500D01*
G75*
G02*
X116471500Y-54945000I-62500J0D01*
G01*
X115721500Y-54945000D01*
G75*
G02*
X115659000Y-54882500I0J62500D01*
G01*
G37*
G36*
G01*
X115659000Y-54382500D02*
X115659000Y-54257500D01*
G75*
G02*
X115721500Y-54195000I62500J0D01*
G01*
X116471500Y-54195000D01*
G75*
G02*
X116534000Y-54257500I0J-62500D01*
G01*
X116534000Y-54382500D01*
G75*
G02*
X116471500Y-54445000I-62500J0D01*
G01*
X115721500Y-54445000D01*
G75*
G02*
X115659000Y-54382500I0J62500D01*
G01*
G37*
G36*
G01*
X115659000Y-53882500D02*
X115659000Y-53757500D01*
G75*
G02*
X115721500Y-53695000I62500J0D01*
G01*
X116471500Y-53695000D01*
G75*
G02*
X116534000Y-53757500I0J-62500D01*
G01*
X116534000Y-53882500D01*
G75*
G02*
X116471500Y-53945000I-62500J0D01*
G01*
X115721500Y-53945000D01*
G75*
G02*
X115659000Y-53882500I0J62500D01*
G01*
G37*
G36*
G01*
X115659000Y-53382500D02*
X115659000Y-53257500D01*
G75*
G02*
X115721500Y-53195000I62500J0D01*
G01*
X116471500Y-53195000D01*
G75*
G02*
X116534000Y-53257500I0J-62500D01*
G01*
X116534000Y-53382500D01*
G75*
G02*
X116471500Y-53445000I-62500J0D01*
G01*
X115721500Y-53445000D01*
G75*
G02*
X115659000Y-53382500I0J62500D01*
G01*
G37*
G36*
G01*
X115659000Y-52882500D02*
X115659000Y-52757500D01*
G75*
G02*
X115721500Y-52695000I62500J0D01*
G01*
X116471500Y-52695000D01*
G75*
G02*
X116534000Y-52757500I0J-62500D01*
G01*
X116534000Y-52882500D01*
G75*
G02*
X116471500Y-52945000I-62500J0D01*
G01*
X115721500Y-52945000D01*
G75*
G02*
X115659000Y-52882500I0J62500D01*
G01*
G37*
%TD*%
%TO.C,U2*%
G36*
G01*
X118015000Y-60000000D02*
X117515000Y-60000000D01*
G75*
G02*
X117315000Y-59800000I0J200000D01*
G01*
X117315000Y-59400000D01*
G75*
G02*
X117515000Y-59200000I200000J0D01*
G01*
X118015000Y-59200000D01*
G75*
G02*
X118215000Y-59400000I0J-200000D01*
G01*
X118215000Y-59800000D01*
G75*
G02*
X118015000Y-60000000I-200000J0D01*
G01*
G37*
G36*
G01*
X118015000Y-61450000D02*
X117515000Y-61450000D01*
G75*
G02*
X117315000Y-61250000I0J200000D01*
G01*
X117315000Y-60850000D01*
G75*
G02*
X117515000Y-60650000I200000J0D01*
G01*
X118015000Y-60650000D01*
G75*
G02*
X118215000Y-60850000I0J-200000D01*
G01*
X118215000Y-61250000D01*
G75*
G02*
X118015000Y-61450000I-200000J0D01*
G01*
G37*
G36*
G01*
X116165000Y-60000000D02*
X115665000Y-60000000D01*
G75*
G02*
X115465000Y-59800000I0J200000D01*
G01*
X115465000Y-59400000D01*
G75*
G02*
X115665000Y-59200000I200000J0D01*
G01*
X116165000Y-59200000D01*
G75*
G02*
X116365000Y-59400000I0J-200000D01*
G01*
X116365000Y-59800000D01*
G75*
G02*
X116165000Y-60000000I-200000J0D01*
G01*
G37*
G36*
G01*
X116165000Y-61450000D02*
X115665000Y-61450000D01*
G75*
G02*
X115465000Y-61250000I0J200000D01*
G01*
X115465000Y-60850000D01*
G75*
G02*
X115665000Y-60650000I200000J0D01*
G01*
X116165000Y-60650000D01*
G75*
G02*
X116365000Y-60850000I0J-200000D01*
G01*
X116365000Y-61250000D01*
G75*
G02*
X116165000Y-61450000I-200000J0D01*
G01*
G37*
%TD*%
D10*
%TO.C,U1*%
X117983000Y-47879000D03*
X117983000Y-49179000D03*
X116083000Y-48529000D03*
X116083000Y-49179000D03*
X116083000Y-47879000D03*
%TD*%
D11*
%TO.C,D1*%
X121920000Y-48895000D03*
X119920000Y-49845000D03*
X119920000Y-47945000D03*
%TD*%
M02*
